<svg xmlns="http://www.w3.org/2000/svg"  viewBox="0 0 50 50" width="50px" height="50px"><path d="M 25 0 C 23.4 0 22 1.3 22 3 C 22 3.8972342 22.396463 4.6747244 23 5.2167969 L 23 8 L 27 8 L 27 5.2480469 C 27.613687 4.7051151 28 3.9156799 28 3 C 28 1.3 26.7 0 25 0 z M 6 10 L 6 41 L 27.699219 41 C 27.733209 41 27.709569 41.021902 27.699219 41.076172 L 27.021484 50.017578 L 28.849609 48.460938 L 37.527344 41.064453 C 37.63421 41.035615 37.790261 41 37.699219 41 L 44 41 L 44 10 L 6 10 z M 8 12 L 42 12 L 42 39 L 37.699219 39 C 37.165885 39 36.871991 39.145059 36.552734 39.304688 L 36.443359 39.359375 L 29.378906 45.380859 L 29.699219 41.138672 L 29.699219 41.099609 C 29.699219 40.055165 28.854774 39 27.699219 39 L 8 39 L 8 12 z M 18 19 A 3 3 0 0 0 18 25 A 3 3 0 0 0 18 19 z M 32 19 A 3 3 0 0 0 32 25 A 3 3 0 0 0 32 19 z M 1.2734375 19.005859 C 0.53652344 18.933166 0 19.504312 0 20.382812 L 0 28.412109 C 1.4802974e-16 29.416109 0.69960938 30.419703 1.5996094 30.720703 L 2.4003906 30.921875 C 3.3003906 31.222875 4 30.621188 4 29.617188 L 4 21.587891 C 4 20.583891 3.3003906 19.579906 2.4003906 19.378906 L 1.5996094 19.078125 C 1.4871094 19.0405 1.3787109 19.016244 1.2734375 19.005859 z M 48.726562 19.005859 C 48.621289 19.016244 48.512891 19.038547 48.400391 19.076172 L 47.599609 19.378906 C 46.699609 19.580906 46 20.583891 46 21.587891 L 46 29.617188 C 46 30.621188 46.699609 31.222875 47.599609 30.921875 L 48.400391 30.720703 C 49.300391 30.419703 50 29.416109 50 28.412109 L 50 20.382812 C 50 19.504312 49.463477 18.933166 48.726562 19.005859 z M 20 29 C 20.7 31.4 22.7 33 25 33 C 27.3 33 29.3 31.3 30 29 L 20 29 z"/></svg>