<?xml version="1.0"?><svg xmlns="http://www.w3.org/2000/svg"  viewBox="0 0 50 50" width="50px" height="50px">    <path d="M 25 2 C 12.308633 2 2 12.308633 2 25 C 2 37.691367 12.308633 48 25 48 C 37.691367 48 48 37.691367 48 25 C 48 12.362796 37.775013 2.1030941 25.158203 2.015625 A 1.0001 1.0001 0 0 0 25 2 z M 25 4 C 33.711694 4 41.172753 9.2859342 44.355469 16.830078 C 44.009478 16.749219 43.652551 16.671656 43.222656 16.599609 C 41.102519 16.244296 37.912943 16 33.396484 16 C 30.547033 16 29.292132 16.610038 27.300781 16.921875 C 26.861017 16.505287 26.173566 16 25 16 C 23.826444 16 23.138882 16.505428 22.699219 16.921875 C 20.704893 16.610122 19.466828 16 16.603516 16 C 12.087057 16 8.8974804 16.244296 6.7773438 16.599609 C 6.3474489 16.671656 5.9905222 16.749219 5.6445312 16.830078 C 8.8272469 9.2859342 16.288306 4 25 4 z M 16.603516 18 C 16.752269 18 16.86036 18.01592 17 18.019531 A 1 1 0 0 0 18 19 A 1 1 0 0 0 18.978516 18.203125 C 19.740383 18.330353 20.485179 18.491885 21.248047 18.65625 A 1 1 0 0 0 22 19 L 22 21 A 1 1 0 0 0 21 22 A 1 1 0 0 0 21.863281 22.988281 C 21.612734 24.654708 21.027352 25.760468 20.203125 26.509766 C 19.429526 27.213037 18.358483 27.652914 16.990234 27.859375 A 1 1 0 0 0 16 27 A 1 1 0 0 0 15 28 C 14.297741 28 13.623552 27.927544 12.980469 27.804688 A 1 1 0 0 0 12 27 A 1 1 0 0 0 11.271484 27.316406 C 10.965596 27.196278 10.669654 27.065758 10.390625 26.917969 A 1 1 0 0 0 11 26 A 1 1 0 0 0 10 25 A 1 1 0 0 0 9.0019531 25.964844 C 8.6566756 25.665737 8.351039 25.342794 8.0898438 24.996094 A 1 1 0 0 0 9 24 A 1 1 0 0 0 8 23 A 1 1 0 0 0 7.2441406 23.345703 C 7.0899755 22.843264 7 22.313025 7 21.75 C 7 20.379951 6.4594731 19.517356 5.8710938 18.990234 A 1 1 0 0 0 6 19 A 1 1 0 0 0 6.765625 18.644531 C 6.8801379 18.620184 6.964006 18.596301 7.1074219 18.572266 C 7.654247 18.480623 8.3188296 18.397685 9.0546875 18.322266 A 1 1 0 0 0 10 19 A 1 1 0 0 0 10.986328 18.160156 C 11.600439 18.12088 12.29257 18.092147 13.001953 18.066406 A 1 1 0 0 0 14 19 A 1 1 0 0 0 14.998047 18.021484 C 15.531251 18.013504 16.025578 18 16.603516 18 z M 25 18 C 25.615984 18 25.878598 18.3584 26 18.494141 L 26 21 C 26 24.166667 26.819202 26.50485 28.453125 27.990234 C 30.087048 29.475619 32.366667 30 35 30 C 37.7014 30 40.166504 29.190067 41.994141 27.746094 C 43.821777 26.30212 45 24.179783 45 21.75 C 45 20.612023 45.214019 20.497492 45.476562 20.34375 C 45.814992 21.841835 46 23.398595 46 25 C 46 36.610633 36.610633 46 25 46 C 13.389367 46 4 36.610633 4 25 C 4 23.398595 4.185008 21.841835 4.5234375 20.34375 C 4.7859811 20.497492 5 20.612023 5 21.75 C 5 24.179783 6.1782227 26.30212 8.0058594 27.746094 C 9.8334961 29.190067 12.2986 30 15 30 C 17.633333 30 19.912952 29.475619 21.546875 27.990234 C 23.180798 26.50485 24 24.166667 24 21 L 24 18.496094 C 24.121722 18.360287 24.385124 18 25 18 z M 33.396484 18 C 33.973719 18 34.46739 18.013523 35 18.021484 A 1 1 0 0 0 36 19 A 1 1 0 0 0 36.996094 18.066406 C 37.70557 18.092133 38.397517 18.120891 39.011719 18.160156 A 1 1 0 0 0 40 19 A 1 1 0 0 0 40.945312 18.322266 C 41.68117 18.397685 42.345753 18.480623 42.892578 18.572266 C 43.03773 18.596591 43.122679 18.621839 43.238281 18.646484 A 1 1 0 0 0 44 19 A 1 1 0 0 0 44.126953 18.992188 C 43.539349 19.519496 43 20.381489 43 21.75 C 43 22.313692 42.910382 22.844697 42.755859 23.347656 A 1 1 0 0 0 42 23 A 1 1 0 0 0 41 24 A 1 1 0 0 0 41.910156 24.994141 C 41.648999 25.340984 41.343337 25.663662 40.998047 25.962891 A 1 1 0 0 0 40 25 A 1 1 0 0 0 39 26 A 1 1 0 0 0 39.607422 26.919922 C 39.329109 27.067213 39.03353 27.196621 38.728516 27.316406 A 1 1 0 0 0 38 27 A 1 1 0 0 0 37.019531 27.804688 C 36.376448 27.927544 35.702259 28 35 28 A 1 1 0 0 0 34 27 A 1 1 0 0 0 33.011719 27.859375 C 31.642548 27.653039 30.570834 27.213365 29.796875 26.509766 C 28.972975 25.760765 28.387433 24.655554 28.136719 22.990234 A 1 1 0 0 0 29 22 A 1 1 0 0 0 28 21 L 28 19 A 1 1 0 0 0 28.753906 18.65625 C 29.516765 18.492248 30.26125 18.330266 31.021484 18.203125 A 1 1 0 0 0 32 19 A 1 1 0 0 0 32.998047 18.019531 C 33.138042 18.015867 33.247421 18 33.396484 18 z M 8 19 A 1 1 0 0 0 7 20 A 1 1 0 0 0 8 21 A 1 1 0 0 0 9 20 A 1 1 0 0 0 8 19 z M 12 19 A 1 1 0 0 0 11 20 A 1 1 0 0 0 12 21 A 1 1 0 0 0 13 20 A 1 1 0 0 0 12 19 z M 16 19 A 1 1 0 0 0 15 20 A 1 1 0 0 0 16 21 A 1 1 0 0 0 17 20 A 1 1 0 0 0 16 19 z M 20 19 A 1 1 0 0 0 19 20 A 1 1 0 0 0 20 21 A 1 1 0 0 0 21 20 A 1 1 0 0 0 20 19 z M 30 19 A 1 1 0 0 0 29 20 A 1 1 0 0 0 30 21 A 1 1 0 0 0 31 20 A 1 1 0 0 0 30 19 z M 34 19 A 1 1 0 0 0 33 20 A 1 1 0 0 0 34 21 A 1 1 0 0 0 35 20 A 1 1 0 0 0 34 19 z M 38 19 A 1 1 0 0 0 37 20 A 1 1 0 0 0 38 21 A 1 1 0 0 0 39 20 A 1 1 0 0 0 38 19 z M 42 19 A 1 1 0 0 0 41 20 A 1 1 0 0 0 42 21 A 1 1 0 0 0 43 20 A 1 1 0 0 0 42 19 z M 10 21 A 1 1 0 0 0 9 22 A 1 1 0 0 0 10 23 A 1 1 0 0 0 11 22 A 1 1 0 0 0 10 21 z M 14 21 A 1 1 0 0 0 13 22 A 1 1 0 0 0 14 23 A 1 1 0 0 0 15 22 A 1 1 0 0 0 14 21 z M 18 21 A 1 1 0 0 0 17 22 A 1 1 0 0 0 18 23 A 1 1 0 0 0 19 22 A 1 1 0 0 0 18 21 z M 32 21 A 1 1 0 0 0 31 22 A 1 1 0 0 0 32 23 A 1 1 0 0 0 33 22 A 1 1 0 0 0 32 21 z M 36 21 A 1 1 0 0 0 35 22 A 1 1 0 0 0 36 23 A 1 1 0 0 0 37 22 A 1 1 0 0 0 36 21 z M 40 21 A 1 1 0 0 0 39 22 A 1 1 0 0 0 40 23 A 1 1 0 0 0 41 22 A 1 1 0 0 0 40 21 z M 12 23 A 1 1 0 0 0 11 24 A 1 1 0 0 0 12 25 A 1 1 0 0 0 13 24 A 1 1 0 0 0 12 23 z M 16 23 A 1 1 0 0 0 15 24 A 1 1 0 0 0 16 25 A 1 1 0 0 0 17 24 A 1 1 0 0 0 16 23 z M 20 23 A 1 1 0 0 0 19 24 A 1 1 0 0 0 20 25 A 1 1 0 0 0 21 24 A 1 1 0 0 0 20 23 z M 30 23 A 1 1 0 0 0 29 24 A 1 1 0 0 0 30 25 A 1 1 0 0 0 31 24 A 1 1 0 0 0 30 23 z M 34 23 A 1 1 0 0 0 33 24 A 1 1 0 0 0 34 25 A 1 1 0 0 0 35 24 A 1 1 0 0 0 34 23 z M 38 23 A 1 1 0 0 0 37 24 A 1 1 0 0 0 38 25 A 1 1 0 0 0 39 24 A 1 1 0 0 0 38 23 z M 14 25 A 1 1 0 0 0 13 26 A 1 1 0 0 0 14 27 A 1 1 0 0 0 15 26 A 1 1 0 0 0 14 25 z M 18 25 A 1 1 0 0 0 17 26 A 1 1 0 0 0 18 27 A 1 1 0 0 0 19 26 A 1 1 0 0 0 18 25 z M 32 25 A 1 1 0 0 0 31 26 A 1 1 0 0 0 32 27 A 1 1 0 0 0 33 26 A 1 1 0 0 0 32 25 z M 36 25 A 1 1 0 0 0 35 26 A 1 1 0 0 0 36 27 A 1 1 0 0 0 37 26 A 1 1 0 0 0 36 25 z M 38.988281 31.988281 A 1.0001 1.0001 0 0 0 38.232422 32.359375 C 38.232422 32.359375 33.555556 38 25 38 C 22.633333 38 21.03064 37.53011 20.03125 37.085938 C 19.03186 36.641764 18.707031 36.292969 18.707031 36.292969 A 1.0001 1.0001 0 1 0 17.292969 37.707031 C 17.292969 37.707031 17.96814 38.358236 19.21875 38.914062 C 20.46936 39.46989 22.366667 40 25 40 C 34.444444 40 39.767578 33.640625 39.767578 33.640625 A 1.0001 1.0001 0 0 0 38.988281 31.988281 z"/></svg>