<svg xmlns="http://www.w3.org/2000/svg"  viewBox="0 0 50 50" width="50px" height="50px"><path d="M 45.873047 6.0039062 C 44.037986 6.0824056 42.474991 7.4842719 42.072266 9.2988281 L 40.794922 15.050781 C 40.293293 14.585184 39.678683 14.230563 38.966797 14.072266 L 38.964844 14.072266 C 38.429814 13.952733 37.892941 13.948625 37.382812 14.042969 C 36.92785 14.127113 36.498904 14.298256 36.103516 14.527344 C 35.627689 13.338382 34.592696 12.392533 33.257812 12.095703 L 33.255859 12.095703 C 32.721242 11.976446 32.185786 11.972071 31.675781 12.066406 C 31.009264 12.189696 30.39366 12.489448 29.873047 12.912109 C 29.325334 12.01431 28.435227 11.328045 27.335938 11.083984 L 27.335938 11.085938 C 26.799543 10.966185 26.26289 10.962052 25.751953 11.056641 C 24.219142 11.340414 22.91972 12.51211 22.5625 14.121094 L 21.724609 17.890625 A 1.000337 1.000337 0 0 0 21.710938 17.947266 L 19.833984 26.392578 L 8.0332031 18.886719 C 6.1957397 17.669888 3.8012288 17.674832 1.96875 18.896484 A 1.0001 1.0001 0 0 0 1.6582031 19.228516 C -0.31031868 20.872001 -0.52917345 23.908358 1.3730469 25.724609 L 15.482422 39.880859 C 18.108753 42.516882 21.677005 44 25.398438 44 L 37.457031 44 C 39.710329 44 41.323964 42.958605 42.28125 41.75 C 43.238536 40.541395 43.623753 39.205949 43.796875 38.425781 L 49.919922 10.867188 C 50.411877 8.6540531 48.931977 6.4352298 46.673828 6.0546875 C 46.403174 6.009269 46.135198 5.9926921 45.873047 6.0039062 z M 45.953125 8.0058594 C 46.081422 7.9990598 46.211701 8.0055123 46.341797 8.0273438 C 47.501648 8.2228013 48.216842 9.3087273 47.966797 10.433594 L 41.84375 37.992188 C 41.706872 38.60902 41.376354 39.670168 40.712891 40.507812 C 40.049427 41.345458 39.134733 42 37.457031 42 L 25.398438 42 C 22.20787 42 19.150105 40.730681 16.898438 38.470703 L 2.7714844 24.294922 A 1.0001 1.0001 0 0 0 2.7539062 24.277344 C 1.6297054 23.203952 1.7856323 21.421732 3.078125 20.560547 C 4.2456462 19.782199 5.7591509 19.779558 6.9296875 20.554688 A 1.0001 1.0001 0 0 0 6.9433594 20.564453 L 19.964844 28.845703 A 1.0001 1.0001 0 0 0 21.476562 28.21875 L 21.765625 26.916016 C 22.267261 27.382904 22.883006 27.737908 23.595703 27.896484 C 23.888259 27.961944 24.181762 27.992188 24.46875 27.992188 C 25.403708 27.992188 26.289673 27.65932 26.990234 27.089844 C 27.538165 27.980976 28.42555 28.661035 29.519531 28.904297 C 29.812014 28.970037 30.10559 29.001953 30.392578 29.001953 C 31.335146 29.001953 32.224673 28.659122 32.927734 28.080078 C 33.476263 28.966009 34.362249 29.641865 35.451172 29.884766 C 35.743655 29.950506 36.037231 29.982422 36.324219 29.982422 C 38.160795 29.982422 39.814108 28.703667 40.226562 26.849609 L 42.001953 18.84375 C 42.002831 18.839805 42.00304 18.835976 42.003906 18.832031 L 44.025391 9.7324219 C 44.238664 8.7714781 45.055047 8.0534566 45.953125 8.0058594 z M 26.496094 12.988281 C 26.629569 12.991038 26.764338 13.006735 26.900391 13.037109 L 26.902344 13.037109 C 27.990686 13.278739 28.661313 14.334088 28.419922 15.423828 L 26.484375 24.132812 L 26.417969 24.427734 C 26.209429 25.367509 25.382174 25.992187 24.46875 25.992188 C 24.323738 25.992188 24.178648 25.977863 24.033203 25.945312 L 24.03125 25.945312 C 22.942263 25.703544 22.271055 24.649023 22.513672 23.558594 L 23.664062 18.380859 L 24.515625 14.554688 C 24.727118 13.602085 25.561766 12.968982 26.496094 12.988281 z M 32.419922 14 C 32.552756 14.002608 32.687404 14.018673 32.822266 14.048828 L 32.824219 14.048828 C 33.914432 14.290723 34.58426 15.34453 34.341797 16.433594 L 32.341797 25.433594 C 32.132252 26.375536 31.306002 27.001953 30.392578 27.001953 C 30.247566 27.001953 30.102502 26.985385 29.958984 26.953125 L 29.957031 26.953125 L 29.955078 26.953125 C 28.864911 26.711232 28.195037 25.65547 28.4375 24.566406 L 30.373047 15.857422 C 30.373047 15.857422 30.373047 15.855469 30.373047 15.855469 L 30.4375 15.566406 C 30.648637 14.614817 31.490081 13.981743 32.419922 14 z M 38.126953 15.974609 C 38.259943 15.977247 38.394141 15.99317 38.529297 16.023438 L 38.53125 16.023438 C 39.614928 16.263882 40.282866 17.308515 40.052734 18.390625 L 39.136719 22.517578 A 1.0001 1.0001 0 0 0 39.117188 22.615234 L 38.273438 26.416016 C 38.06326 27.356985 37.237079 27.982422 36.324219 27.982422 C 36.179206 27.982422 36.034142 27.965854 35.890625 27.933594 L 35.888672 27.933594 L 35.886719 27.933594 C 34.796505 27.691698 34.126677 26.637892 34.369141 25.548828 L 36.144531 17.542969 C 36.355834 16.590635 37.196021 15.956146 38.126953 15.974609 z"/></svg>