<svg xmlns="http://www.w3.org/2000/svg"  viewBox="0 0 50 50" width="50px" height="50px"><path d="M 25 2 C 12.308633 2 2 12.308633 2 25 C 2 37.691367 12.308633 48 25 48 C 37.691367 48 48 37.691367 48 25 C 48 12.362796 37.775013 2.1030941 25.158203 2.015625 A 1.0001 1.0001 0 0 0 25 2 z M 25 4 C 36.610633 4 46 13.389367 46 25 C 46 36.610633 36.610633 46 25 46 C 13.389367 46 4 36.610633 4 25 C 4 13.389367 13.389367 4 25 4 z M 14.273438 15 C 11.950687 15 10 16.828688 10 19.117188 C 10 21.335169 11.337046 23.001227 12.738281 24.195312 C 14.139516 25.389398 15.708605 26.251302 16.378906 26.783203 A 1.0001 1.0001 0 0 0 17.623047 26.783203 C 18.292352 26.251359 19.860402 25.389218 21.261719 24.195312 C 22.663036 23.001409 24 21.33526 24 19.117188 C 24 16.828688 22.049312 15 19.726562 15 C 18.818078 15 18.07994 15.438985 17.509766 15.921875 C 17.291446 16.106774 17.180463 16.300185 17 16.498047 C 16.819537 16.300185 16.708554 16.106774 16.490234 15.921875 C 15.92006 15.438985 15.181922 15 14.273438 15 z M 30.273438 15 C 27.950688 15 26 16.828688 26 19.117188 C 26 21.335169 27.337064 23.001378 28.738281 24.195312 C 30.139499 25.389249 31.708831 26.251073 32.378906 26.783203 A 1.0001 1.0001 0 0 0 33.621094 26.783203 C 34.291395 26.251302 35.860484 25.389398 37.261719 24.195312 C 38.662954 23.001228 40 21.335169 40 19.117188 C 40 16.828688 38.049312 15 35.726562 15 C 34.818078 15 34.07994 15.438985 33.509766 15.921875 C 33.291446 16.106774 33.180463 16.300185 33 16.498047 C 32.819537 16.300185 32.708554 16.106774 32.490234 15.921875 C 31.92006 15.438985 31.181922 15 30.273438 15 z M 14.273438 17 C 14.502952 17 14.83494 17.140406 15.197266 17.447266 C 15.559592 17.754126 15.916495 18.194545 16.179688 18.572266 A 1.0001 1.0001 0 0 0 17.820312 18.572266 C 18.083505 18.194545 18.440408 17.754126 18.802734 17.447266 C 19.16506 17.140406 19.497047 17 19.726562 17 C 21.019813 17 22 17.963687 22 19.117188 C 22 20.535114 21.154527 21.660233 19.964844 22.673828 C 18.981723 23.511435 17.914443 24.135948 17 24.775391 C 16.085413 24.136301 15.018494 23.511796 14.035156 22.673828 C 12.845641 21.660164 12 20.535206 12 19.117188 C 12 17.963687 12.980187 17 14.273438 17 z M 30.273438 17 C 30.502952 17 30.83494 17.140406 31.197266 17.447266 C 31.559592 17.754126 31.916495 18.194545 32.179688 18.572266 A 1.0001 1.0001 0 0 0 33.820312 18.572266 C 34.083504 18.194545 34.440408 17.754126 34.802734 17.447266 C 35.16506 17.140406 35.497048 17 35.726562 17 C 37.019813 17 38 17.963687 38 19.117188 C 38 20.535206 37.154359 21.660164 35.964844 22.673828 C 34.981506 23.511796 33.914587 24.136301 33 24.775391 C 32.085263 24.135874 31.018509 23.511713 30.035156 22.673828 C 28.845624 21.660263 28 20.535206 28 19.117188 C 28 17.963687 28.980187 17 30.273438 17 z M 11.957031 28.988281 A 1.0001 1.0001 0 0 0 11.185547 30.582031 C 11.185547 30.582031 16.416667 38 25 38 C 33.583333 38 38.814453 30.582031 38.814453 30.582031 A 1.0010463 1.0010463 0 0 0 37.185547 29.417969 C 37.185547 29.417969 32.416667 36 25 36 C 17.583333 36 12.814453 29.417969 12.814453 29.417969 A 1.0001 1.0001 0 0 0 11.957031 28.988281 z"/></svg>