<svg xmlns="http://www.w3.org/2000/svg"  viewBox="0 0 50 50" width="50px" height="50px"><path d="M 25.832031 1.0742188 C 25.215984 1.0582246 24.60074 1.073818 23.990234 1.1230469 C 21.548211 1.3199623 19.177622 2.0477315 17.089844 3.3828125 C 13.068086 5.9546239 10.252757 10.809288 10.060547 18 L 10 18 C 10 18 9.9984496 24.061429 11.009766 31.140625 C 11.519556 34.711356 13.746988 38.494777 14.583984 40.414062 C 15.053856 41.491536 15.730182 42.277764 16.498047 42.849609 C 14.340817 45.94554 8.9648438 46.09375 8.9648438 46.09375 A 1.0001 1.0001 0 1 0 8.9648438 48.09375 C 8.9648438 48.09375 14.803882 48.213363 17.802734 44.439453 C 18.447721 45.342418 19.515822 46.821375 20.248047 47.658203 A 1.0001 1.0001 0 1 0 21.751953 46.341797 C 21.378367 45.914841 20.649643 44.941911 20.011719 44.072266 C 21.986595 44.164145 23.75055 43.576892 24.652344 43.179688 A 1.0001 1.0001 0 0 0 24.673828 43.169922 C 24.673828 43.169922 26.336893 42.391689 28.279297 41.333984 C 30.221701 40.27628 32.421589 38.992473 33.707031 37.707031 C 33.976839 37.437224 34.234691 37.155987 34.480469 36.869141 C 34.42246 37.338723 34.370658 37.80696 34.333984 38.269531 C 34.189107 40.096884 34.240969 41.881382 34.574219 43.515625 C 33.700795 44.1073 31.69351 45.380578 29.683594 46.050781 A 1.0005646 1.0005646 0 1 0 30.316406 47.949219 C 32.305536 47.285947 34.076977 46.229427 35.160156 45.521484 C 35.691563 46.80189 36.485245 47.92239 37.626953 48.794922 A 1.0004311 1.0004311 0 0 0 38.841797 47.205078 C 36.62554 45.51134 36.018547 42.332465 36.328125 38.427734 C 36.475754 36.56568 36.839795 34.578283 37.291016 32.597656 C 37.392627 32.399322 37.516508 32.163533 37.576172 32.041016 C 38.178662 32.067486 38.989191 32.018176 39.941406 31.548828 C 41.53159 30.765062 43 28.771205 43 25 C 43 22.3458 42.379494 20.780565 41.441406 19.900391 C 41.357142 19.821328 41.268859 19.757105 41.181641 19.691406 C 42.487445 16.179497 42.361987 12.591824 40.796875 9.515625 C 39.127286 6.2340793 35.884675 3.5733633 31.316406 2.0507812 C 29.537991 1.4579761 27.680172 1.1222012 25.832031 1.0742188 z M 25.792969 3.078125 C 27.42959 3.1205205 29.087009 3.4170238 30.683594 3.9492188 C 34.861325 5.3416367 37.619761 7.6821707 39.013672 10.421875 C 40.318752 12.986984 40.413095 15.939217 39.277344 18.986328 C 39.053383 18.980328 38.829534 18.938883 38.597656 18.970703 C 38.07926 19.041843 37.541372 19.263814 37.091797 19.632812 C 36.65224 19.993589 36.274193 20.464807 35.882812 21.082031 C 35.57116 20.084405 35.182009 19.093412 34.833984 18.027344 C 34.155913 15.950273 33.604726 13.558719 33.994141 10.111328 A 1.0001 1.0001 0 0 0 33.40625 9.0859375 C 30.628601 7.8517214 27.12354 7.1438313 23.837891 6.953125 C 20.552242 6.7624187 17.525095 7.0310712 15.521484 8.1210938 A 1.0001 1.0001 0 0 0 15.474609 8.1484375 C 15.09359 8.3837907 14.796228 8.7388401 14.460938 9.0390625 C 15.481232 7.3735992 16.70667 6.0015739 18.166016 5.0683594 C 19.950362 3.9273154 22.015008 3.2932094 24.166016 3.1210938 C 24.703768 3.0780648 25.247428 3.0639932 25.792969 3.078125 z M 22.585938 8.9082031 C 22.959332 8.9130922 23.339659 8.9269887 23.722656 8.9492188 C 26.58587 9.1154059 29.614599 9.7652911 32.011719 10.730469 C 31.779759 14.028027 32.272663 16.62387 32.933594 18.648438 C 33.655772 20.860616 34.397317 22.484504 34.421875 24.046875 A 1.0001 1.0001 0 0 0 36.318359 24.476562 C 37.312754 22.475941 37.968275 21.500691 38.359375 21.179688 C 38.554925 21.019185 38.65888 20.980028 38.869141 20.951172 C 38.897808 20.947237 38.947246 20.951484 38.980469 20.949219 L 38.978516 21 C 39.353775 21.0082 39.684056 20.9933 40.074219 21.359375 C 40.464383 21.725451 41 22.6542 41 25 C 41 28.299795 39.968414 29.305456 39.058594 29.753906 C 38.6538 29.953429 38.255079 30.019287 37.923828 30.041016 C 38.263313 28.748663 38.614502 27.475282 38.960938 26.277344 A 1.0001 1.0001 0 0 0 37.970703 24.986328 A 1.0001 1.0001 0 0 0 37.039062 25.722656 C 36.485968 27.635201 35.889191 29.733543 35.390625 31.880859 C 34.68689 33.149043 33.550844 35.035093 32.292969 36.292969 C 31.381411 37.204527 29.205611 38.55258 27.322266 39.578125 C 25.447305 40.599105 23.856074 41.344873 23.841797 41.351562 C 23.185838 41.639744 21.572507 42.151637 20.070312 42.074219 C 18.565295 41.996659 17.241978 41.509266 16.416016 39.615234 C 15.465012 37.434521 13.408444 33.788644 12.990234 30.859375 C 12.565315 27.88494 12.345519 25.202485 12.207031 22.984375 A 1.0002763 1.0002763 0 0 0 12.664062 22.753906 C 12.664062 22.753906 12.875936 22.559722 13.263672 22.347656 A 1.5 1.5 0 0 0 14.5 23 A 1.5 1.5 0 0 0 15.960938 21.835938 C 16.214043 21.861842 16.474505 21.897538 16.751953 21.96875 A 1.0001 1.0001 0 0 0 17.46875 21.892578 C 17.223765 22.943004 16.693005 24.241358 15.599609 25.699219 A 0.50078155 0.50078155 0 0 0 16.400391 26.300781 C 17.952391 24.231448 18.489509 22.384211 18.623047 21.048828 C 18.756585 19.713445 18.474609 18.841797 18.474609 18.841797 A 0.50005 0.50005 0 0 0 17.978516 18.494141 A 0.50005 0.50005 0 0 0 17.525391 19.158203 C 17.525391 19.158203 17.651593 19.537029 17.658203 20.238281 A 1.0001 1.0001 0 0 0 17.248047 20.03125 C 16.382469 19.809085 15.579883 19.774294 14.863281 19.847656 C 13.629586 19.973957 12.694647 20.40672 12.083984 20.763672 C 12.055993 20.075647 12.022943 19.389932 12.013672 18.960938 C 12.045799 18.803759 12.08387 18.661512 12.117188 18.507812 C 12.87822 18.072352 14.170215 17.624447 15.841797 18.181641 A 0.50005 0.50005 0 1 0 16.158203 17.234375 C 15.344958 16.963293 14.59303 16.896926 13.923828 16.951172 C 13.343136 16.998243 12.833028 17.139344 12.388672 17.310547 C 13.337252 13.557182 14.69356 11.005994 16.501953 9.8730469 C 17.656349 9.2529809 19.972175 8.8739794 22.585938 8.9082031 z M 25.65625 16.917969 C 24.130762 16.917969 22.896484 17.177734 22.896484 17.177734 A 0.50008894 0.50008894 0 1 0 23.103516 18.15625 C 23.103516 18.15625 24.244238 17.917969 25.65625 17.917969 C 27.068262 17.917969 28.704478 18.184579 29.667969 19.041016 A 0.50013814 0.50013814 0 1 0 30.332031 18.292969 C 29.045522 17.149405 27.181738 16.917969 25.65625 16.917969 z M 26.158203 19.714844 C 24.775956 19.719744 23.742187 20.033203 23.742188 20.033203 A 1.0005816 1.0005816 0 1 0 24.257812 21.966797 C 24.257812 21.966797 24.577411 21.903812 25.042969 21.851562 A 1.5 1.5 0 0 0 26.5 23 A 1.5 1.5 0 0 0 27.908203 22.013672 C 28.431568 22.160324 28.930773 22.387901 29.335938 22.748047 A 1.0002763 1.0002763 0 1 0 30.664062 21.251953 C 29.271027 20.013699 27.540451 19.709987 26.158203 19.714844 z M 20.492188 22.992188 A 0.50005 0.50005 0 0 0 20 23.5 L 20 25.5 A 0.50005 0.50005 0 1 0 21 25.5 L 21 23.5 A 0.50005 0.50005 0 0 0 20.492188 22.992188 z M 22.910156 26.525391 C 22.642156 26.576391 22.467531 26.835516 22.519531 27.103516 L 22.527344 27.142578 C 22.577344 27.401578 22.604172 27.71875 22.576172 27.96875 C 22.555172 28.23175 22.446672 28.409063 22.388672 28.414062 C 22.345672 28.432063 22.185406 28.456625 21.941406 28.390625 C 21.690406 28.329625 21.476578 28.224125 21.142578 28.078125 C 20.423578 27.761125 19.629422 27.625578 18.857422 27.642578 C 18.066422 27.670578 17.364734 27.783469 16.552734 28.105469 C 16.509734 28.122469 16.462875 28.145922 16.421875 28.169922 C 15.941875 28.445922 15.776734 29.059062 16.052734 29.539062 C 16.328734 30.019063 16.943828 30.184203 17.423828 29.908203 L 17.447266 29.894531 C 17.845266 29.665531 18.455281 29.458859 18.988281 29.380859 C 19.541281 29.295859 20.096047 29.31675 20.623047 29.46875 C 20.913047 29.55075 21.321469 29.695375 21.730469 29.734375 C 22.128469 29.777375 22.703594 29.777328 23.183594 29.361328 C 23.645594 28.927328 23.6935 28.389 23.6875 28 C 23.6725 27.585 23.599609 27.239422 23.474609 26.857422 C 23.398609 26.624422 23.157156 26.477391 22.910156 26.525391 z M 25.986328 30.494141 A 0.50005 0.50005 0 0 0 25.5625 31.242188 C 25.5625 31.242188 26.161469 32.325124 26.517578 33.630859 C 26.695633 34.283727 26.808959 34.98671 26.767578 35.607422 C 26.726198 36.228134 26.543365 36.749604 26.146484 37.146484 A 0.50005 0.50005 0 1 0 26.853516 37.853516 C 27.456635 37.250396 27.711303 36.459366 27.763672 35.673828 C 27.816042 34.88829 27.679362 34.091273 27.482422 33.369141 C 27.088531 31.924876 26.4375 30.757813 26.4375 30.757812 A 0.50005 0.50005 0 0 0 25.986328 30.494141 z M 18.806641 30.925781 C 18.501266 30.936406 18.188812 30.973734 17.882812 31.052734 C 17.274812 31.199734 16.700703 31.477422 16.220703 31.857422 C 15.267703 32.612422 14.644375 33.779734 14.734375 34.927734 C 14.740375 35.003734 14.775891 35.077859 14.837891 35.130859 C 14.961891 35.234859 15.145047 35.21775 15.248047 35.09375 L 15.263672 35.074219 C 15.897672 34.312219 16.547578 33.790516 17.267578 33.478516 C 17.997578 33.163516 18.640141 33.035609 19.494141 33.099609 C 20.323141 33.154609 21.142594 33.357797 21.933594 33.716797 C 22.722594 34.061797 23.512625 34.569688 24.140625 35.179688 L 24.189453 35.226562 C 24.291453 35.324563 24.442891 35.367219 24.587891 35.324219 C 24.801891 35.260219 24.923375 35.034312 24.859375 34.820312 C 24.522375 33.689312 23.755422 32.845922 22.857422 32.169922 C 21.946422 31.507922 20.835547 31.083031 19.685547 30.957031 C 19.409047 30.931531 19.112016 30.915156 18.806641 30.925781 z M 19.820312 36.027344 C 19.657255 36.024249 19.497292 36.030121 19.339844 36.044922 C 18.08026 36.16333 17.024183 36.836894 16.552734 37.775391 A 0.50049583 0.50049583 0 1 0 17.447266 38.224609 C 18.004369 37.115602 20.439491 36.15944 22.648438 38.355469 A 0.50005 0.50005 0 1 0 23.351562 37.644531 C 22.223227 36.522794 20.961717 36.049006 19.820312 36.027344 z"/></svg>