<svg xmlns="http://www.w3.org/2000/svg"  viewBox="0 0 50 50" width="50px" height="50px"><path d="M 11.001953 4.9960938 A 1.0001 1.0001 0 0 0 10 5.9960938 L 9.9980469 13.800781 L 4.6074219 23.136719 C 4.2096354 23.825782 4 24.607075 4 25.402344 L 4 36 C 4 40.950827 8.1084222 45 13.101562 45 L 41.962891 45 C 44.171935 45 46 43.201803 46 41 C 46 38.798197 44.171935 37 41.962891 37 L 34.917969 37 C 35.264868 36.40837 35.478516 35.730688 35.478516 35 C 35.478516 33.789062 34.902269 32.735556 34.042969 32 C 34.902269 31.264444 35.478516 30.210938 35.478516 29 C 35.478516 27.53427 34.639431 26.298171 33.453125 25.601562 C 34.069854 24.897076 34.478516 24.00249 34.478516 23 C 34.478516 20.802666 32.67585 19 30.478516 19 L 26.074219 19 C 26.06886 19 26.063948 19.001932 26.058594 19.001953 A 1.0001 1.0001 0 0 0 26 19 L 17.513672 19 C 17.664499 18.62376 17.691393 18.601735 17.869141 18.099609 C 18.324932 16.812032 18.808594 15.29846 18.808594 13.978516 C 18.808594 11.942266 18.127922 9.8328307 17.197266 8.1523438 C 16.731938 7.3121002 16.205019 6.5812774 15.615234 6.0175781 C 15.02545 5.4538789 14.350633 5 13.496094 5 C 12.307774 5 11.001953 4.9960937 11.001953 4.9960938 z M 12 6.9980469 C 12.491065 6.9989108 12.78239 7 13.496094 7 C 13.533554 7 13.846457 7.093996 14.232422 7.4628906 C 14.618387 7.8317851 15.057594 8.4174621 15.447266 9.1210938 C 16.22661 10.528357 16.808594 12.409765 16.808594 13.978516 C 16.808594 14.730571 16.411084 16.226218 15.984375 17.431641 C 15.557666 18.637063 15.130859 19.591797 15.130859 19.591797 A 1.0001 1.0001 0 0 0 16.044922 21 L 22.634766 21 C 22.287866 21.59163 22.074219 22.269312 22.074219 23 C 22.074219 24.46573 22.915257 25.701829 24.101562 26.398438 C 23.484759 27.102942 23.074219 27.997441 23.074219 29 C 23.074219 30.210938 23.652418 31.264444 24.511719 32 C 23.652418 32.735556 23.074219 33.789062 23.074219 35 C 23.074219 37.197334 24.876885 39 27.074219 39 L 31.328125 39 L 31.478516 39 L 41.962891 39 C 43.091847 39 44 39.905803 44 41 C 44 42.094197 43.091847 43 41.962891 43 L 13.101562 43 C 9.1867038 43 6 39.845173 6 36 L 6 25.402344 C 6 24.957613 6.117627 24.521655 6.3398438 24.136719 L 11.863281 14.568359 A 1.0001 1.0001 0 0 0 11.996094 14.068359 L 12 6.9980469 z M 26.074219 21 L 30.478516 21 C 31.595182 21 32.478516 21.883334 32.478516 23 C 32.478516 24.116666 31.595182 25 30.478516 25 L 27.074219 25 L 26.074219 25 C 24.957553 25 24.074219 24.116666 24.074219 23 C 24.074219 21.883334 24.957553 21 26.074219 21 z M 27.074219 27 L 30.478516 27 L 31.478516 27 C 32.595182 27 33.478516 27.883334 33.478516 29 C 33.478516 30.116666 32.595182 31 31.478516 31 L 27.074219 31 C 25.957553 31 25.074219 30.116666 25.074219 29 C 25.074219 27.883334 25.957553 27 27.074219 27 z M 27.074219 33 L 31.478516 33 C 32.595182 33 33.478516 33.883334 33.478516 35 C 33.478516 36.116666 32.595182 37 31.478516 37 L 31.328125 37 L 27.074219 37 C 25.957553 37 25.074219 36.116666 25.074219 35 C 25.074219 33.883334 25.957553 33 27.074219 33 z"/></svg>