<svg xmlns="http://www.w3.org/2000/svg"  viewBox="0 0 50 50" width="50px" height="50px"><path d="M 24.982422 3 A 1.0001 1.0001 0 0 0 24.535156 3.1132812 L 3.5351562 14.113281 A 1.0001 1.0001 0 0 0 3 15 L 3 18 A 1.0001 1.0001 0 0 0 4 19 L 6.9921875 19 L 6.9921875 37 L 5 37 C 4.448 37 4 37.447 4 38 L 4 40 L 3 40 C 2.448 40 2 40.447 2 41 L 2 44 C 2 44.553 2.448 45 3 45 L 26 45 L 26 43 L 4 43 L 4 42 L 5 42 C 5.552 42 6 41.553 6 41 L 6 39 L 7.9609375 39 C 7.9746593 39.000553 7.9861416 39.007812 8 39.007812 L 12 39.007812 C 12.013858 39.007812 12.025341 39.000553 12.039062 39 L 17.960938 39 C 17.974659 39.000553 17.986142 39.007812 18 39.007812 L 22 39.007812 C 22.013858 39.007812 22.025341 39.000553 22.039062 39 L 26.908203 39 C 26.991482 38.84531 27.083895 38.696231 27.177734 38.548828 C 27.178544 38.550032 27.178874 38.551533 27.179688 38.552734 C 27.354618 38.276208 27.549768 38.015688 27.755859 37.763672 C 27.981591 37.494539 28.222622 37.237083 28.482422 37 L 28.464844 37 C 28.638391 36.839391 28.818444 36.686035 29.007812 36.542969 L 29.007812 19.007812 L 30.992188 19.007812 L 30.992188 26.425781 C 31.504188 25.567781 32.190812 24.827812 33.007812 24.257812 L 33.007812 19 L 36.992188 19 L 36.992188 23 L 37 23 C 37.698 23 38.370813 23.105875 39.007812 23.296875 L 39.007812 19.007812 L 40.992188 19.007812 L 40.992188 24.257812 C 41.809188 24.827813 42.494812 25.567781 43.007812 26.425781 L 43.007812 19 L 46 19 A 1.0001 1.0001 0 0 0 47 18 L 47 15 A 1.0001 1.0001 0 0 0 46.464844 14.113281 L 25.464844 3.1132812 A 1.0001 1.0001 0 0 0 24.982422 3 z M 25 5.1308594 L 45 15.605469 L 45 17 L 42.039062 17 C 42.025341 16.999447 42.013858 16.992188 42 16.992188 L 38 16.992188 C 37.986142 16.992188 37.974659 16.999447 37.960938 17 L 32.039062 17 C 32.025341 16.999447 32.013858 16.992188 32 16.992188 L 28 16.992188 C 27.986142 16.992188 27.974659 16.999447 27.960938 17 L 22.039062 17 C 22.025341 16.999447 22.013858 16.992188 22 16.992188 L 18 16.992188 C 17.986142 16.992188 17.974659 16.999447 17.960938 17 L 12.039062 17 C 12.025341 16.999447 12.013858 16.992188 12 16.992188 L 8 16.992188 C 7.9861416 16.992188 7.9746593 16.999447 7.9609375 17 L 5 17 L 5 15.605469 L 25 5.1308594 z M 25 8 C 23.75 8 22.685226 8.5047556 22.001953 9.2734375 C 21.318681 10.042119 21 11.027778 21 12 C 21 12.972222 21.318681 13.957881 22.001953 14.726562 C 22.685226 15.495245 23.75 16 25 16 C 26.25 16 27.314774 15.495244 27.998047 14.726562 C 28.681319 13.957882 29 12.972222 29 12 C 29 11.027778 28.681319 10.042119 27.998047 9.2734375 C 27.314774 8.5047556 26.25 8 25 8 z M 25 10 C 25.749999 10 26.185226 10.245244 26.501953 10.601562 C 26.81868 10.957882 27 11.472222 27 12 C 27 12.527778 26.81868 13.042119 26.501953 13.398438 C 26.185226 13.754755 25.749999 14 25 14 C 24.250001 14 23.814774 13.754756 23.498047 13.398438 C 23.18132 13.042118 23 12.527778 23 12 C 23 11.472222 23.18132 10.957881 23.498047 10.601562 C 23.814774 10.245245 24.250001 10 25 10 z M 13.007812 19 L 16.992188 19 L 16.992188 37 L 13.007812 37 L 13.007812 19 z M 23.007812 19 L 26.992188 19 L 26.992188 37 L 23.007812 37 L 23.007812 19 z M 9.0078125 19.007812 L 10.992188 19.007812 L 10.992188 36.992188 L 9.0078125 36.992188 L 9.0078125 19.007812 z M 19.007812 19.007812 L 20.992188 19.007812 L 20.992188 36.992188 L 19.007812 36.992188 L 19.007812 19.007812 z M 37 25 C 35.416667 25 34.101892 25.629756 33.251953 26.585938 C 32.402014 27.542119 32 28.777778 32 30 C 32 31.222222 32.402014 32.457882 33.251953 33.414062 C 34.101892 34.370244 35.416667 35 37 35 C 38.583333 35 39.898108 34.370244 40.748047 33.414062 C 41.597986 32.457881 42 31.222222 42 30 C 42 28.777778 41.597986 27.542118 40.748047 26.585938 C 39.898108 25.629756 38.583333 25 37 25 z M 37 27 C 38.083333 27 38.768559 27.370244 39.251953 27.914062 C 39.735347 28.457881 40 29.222222 40 30 C 40 30.777778 39.735347 31.542118 39.251953 32.085938 C 38.768559 32.629756 38.083333 33 37 33 C 35.916667 33 35.231441 32.629756 34.748047 32.085938 C 34.264653 31.542119 34 30.777778 34 30 C 34 29.222222 34.264653 28.457882 34.748047 27.914062 C 35.231441 27.370244 35.916667 27 37 27 z M 33.558594 37 C 30.501003 37 28 39.500218 28 42.558594 L 28 47 A 1.0001 1.0001 0 1 0 30 47 L 30 42.558594 C 30 40.58097 31.582184 39 33.558594 39 L 40.441406 39 C 42.41903 39 44 40.58097 44 42.558594 L 44 47 A 1.0001 1.0001 0 1 0 46 47 L 46 42.558594 C 46 39.500218 43.499782 37 40.441406 37 L 33.558594 37 z"/></svg>