<svg xmlns="http://www.w3.org/2000/svg"  viewBox="0 0 50 50" width="50px" height="50px"><path d="M 17.3125 0 C 17.257813 0.0078125 17.207031 0.015625 17.15625 0.03125 L 10.46875 1.6875 L 10 1.6875 L 10 1.71875 C 7.214844 0.992188 4.507813 3.519531 5 6.46875 C 5.011719 6.480469 5.019531 6.488281 5.03125 6.5 L 5.6875 10 L 5.6875 10.28125 L 4.03125 17.15625 C 4.011719 17.238281 4 17.320313 4 17.40625 L 4 17.90625 C 4.003906 17.980469 4.011719 18.054688 4.03125 18.125 L 5.6875 24.90625 L 5.6875 25.1875 L 4.03125 31.96875 C 4.011719 32.039063 4.003906 32.113281 4 32.1875 L 4 32.6875 C 4 32.773438 4.011719 32.855469 4.03125 32.9375 L 5.6875 39.71875 L 5.6875 40 L 5.03125 43.5 C 4.410156 46.484375 7.199219 49.015625 10 48.28125 L 10 48.3125 L 10.09375 48.3125 C 10.167969 48.308594 10.242188 48.300781 10.3125 48.28125 C 10.324219 48.28125 10.332031 48.28125 10.34375 48.28125 L 17.15625 49.96875 C 17.238281 49.988281 17.320313 50 17.40625 50 L 17.90625 50 C 17.992188 50 18.074219 49.988281 18.15625 49.96875 L 24.8125 48.3125 L 25.09375 48.3125 L 31.75 49.96875 C 31.832031 49.988281 31.914063 50 32 50 L 32.5 50 C 32.585938 50 32.667969 49.988281 32.75 49.96875 L 39.40625 48.3125 L 39.90625 48.3125 L 39.90625 48.28125 C 42.75 48.996094 45.464844 46.476563 44.875 43.53125 L 44.875 43.5 L 44.1875 39.71875 L 44.1875 39.625 L 45.875 32.84375 C 45.894531 32.761719 45.90625 32.679688 45.90625 32.59375 L 45.90625 32.09375 C 45.90625 32.007813 45.894531 31.925781 45.875 31.84375 L 44.1875 25.1875 L 44.1875 24.90625 L 45.875 18.25 C 45.894531 18.167969 45.90625 18.085938 45.90625 18 L 45.90625 17.5 C 45.902344 17.425781 45.894531 17.351563 45.875 17.28125 L 44.1875 10 L 44.1875 9.96875 L 44.875 6.71875 C 45.496094 3.734375 42.707031 1.203125 39.90625 1.9375 L 39.90625 1.90625 L 39.8125 1.90625 C 39.738281 1.910156 39.664063 1.917969 39.59375 1.9375 C 39.582031 1.9375 39.574219 1.9375 39.5625 1.9375 L 39.5 1.9375 L 32.78125 0.03125 C 32.691406 0.0078125 32.59375 -0.00390625 32.5 0 L 32 0 C 31.914063 0 31.832031 0.0117188 31.75 0.03125 L 25.09375 1.6875 L 24.8125 1.6875 L 18.15625 0.03125 C 18.074219 0.0117188 17.992188 0 17.90625 0 L 17.40625 0 C 17.375 0 17.34375 0 17.3125 0 Z M 17.53125 2 L 17.78125 2 L 24.46875 3.65625 C 24.539063 3.675781 24.613281 3.683594 24.6875 3.6875 L 25.1875 3.6875 C 25.273438 3.6875 25.355469 3.675781 25.4375 3.65625 L 32.125 2 L 32.34375 2 L 39.03125 3.875 L 39.0625 3.8125 C 39.328125 3.914063 39.574219 3.96875 39.8125 3.90625 L 39.90625 3.90625 C 40.023438 3.90625 40.140625 3.882813 40.25 3.84375 C 41.738281 3.304688 43.257813 4.589844 42.90625 6.28125 L 42.21875 9.59375 C 42.199219 9.664063 42.191406 9.738281 42.1875 9.8125 L 42.1875 10.1875 C 42.1875 10.273438 42.199219 10.355469 42.21875 10.4375 L 43.90625 17.59375 L 43.90625 17.875 L 42.21875 24.5625 C 42.199219 24.644531 42.1875 24.726563 42.1875 24.8125 L 42.1875 25.3125 C 42.191406 25.386719 42.199219 25.460938 42.21875 25.53125 L 43.90625 32.21875 L 43.90625 32.5 L 42.21875 39.25 C 42.199219 39.332031 42.1875 39.414063 42.1875 39.5 L 42.1875 39.90625 C 42.191406 39.96875 42.203125 40.03125 42.21875 40.09375 L 42.90625 43.875 C 42.90625 43.886719 42.90625 43.894531 42.90625 43.90625 C 43.265625 45.625 41.84375 46.910156 40.21875 46.34375 C 40.117188 46.316406 40.011719 46.304688 39.90625 46.3125 L 39.3125 46.3125 C 39.226563 46.3125 39.144531 46.324219 39.0625 46.34375 L 32.375 48 L 32.125 48 L 25.4375 46.34375 C 25.355469 46.324219 25.273438 46.3125 25.1875 46.3125 L 24.6875 46.3125 C 24.613281 46.316406 24.539063 46.324219 24.46875 46.34375 L 17.78125 48 L 17.53125 48 L 10.84375 46.34375 L 10.84375 46.375 C 10.542969 46.257813 10.265625 46.230469 10 46.3125 C 9.882813 46.3125 9.765625 46.335938 9.65625 46.375 C 8.167969 46.914063 6.617188 45.597656 6.96875 43.90625 C 6.96875 43.894531 6.96875 43.886719 6.96875 43.875 L 7.6875 40.1875 C 7.695313 40.125 7.695313 40.0625 7.6875 40 L 7.6875 39.59375 C 7.683594 39.519531 7.675781 39.445313 7.65625 39.375 L 6 32.59375 L 6 32.3125 L 7.65625 25.53125 C 7.675781 25.460938 7.683594 25.386719 7.6875 25.3125 L 7.6875 24.8125 C 7.6875 24.726563 7.675781 24.644531 7.65625 24.5625 L 6 17.78125 L 6 17.5 L 7.65625 10.625 C 7.675781 10.554688 7.683594 10.480469 7.6875 10.40625 L 7.6875 10 C 7.695313 9.9375 7.695313 9.875 7.6875 9.8125 L 6.96875 6.125 L 7 6.125 C 6.710938 4.398438 8.160156 3.082031 9.65625 3.625 C 9.765625 3.664063 9.882813 3.6875 10 3.6875 L 10.59375 3.6875 C 10.679688 3.6875 10.761719 3.675781 10.84375 3.65625 Z M 18.90625 5.96875 C 18.863281 5.976563 18.820313 5.988281 18.78125 6 L 11 6 C 10.96875 6 10.9375 6 10.90625 6 C 10.390625 6.046875 9.996094 6.480469 10 7 L 10 16.53125 C 9.867188 16.808594 9.867188 17.128906 10 17.40625 L 10 23.6875 C 9.941406 23.882813 9.941406 24.085938 10 24.28125 L 10 43 C 10 43.550781 10.449219 44 11 44 L 39 44 C 39.550781 44 40 43.550781 40 43 L 40 24.1875 C 40.027344 24.054688 40.027344 23.914063 40 23.78125 L 40 17.1875 C 40.027344 17.054688 40.027344 16.914063 40 16.78125 L 40 7 C 40 6.449219 39.550781 6 39 6 L 19.1875 6 C 19.097656 5.976563 19 5.964844 18.90625 5.96875 Z M 12 8 L 18 8 L 18 16 L 12 16 Z M 20 8 L 38 8 L 38 16 L 20 16 Z M 12 18 L 18 18 L 18 23 L 12 23 Z M 20 18 L 38 18 L 38 23 L 31.1875 23 C 31.097656 22.976563 31 22.964844 30.90625 22.96875 C 30.863281 22.976563 30.820313 22.988281 30.78125 23 L 20 23 Z M 12 25 L 18 25 L 18 42 L 12 42 Z M 20 25 L 30 25 L 30 42 L 20 42 Z M 32 25 L 38 25 L 38 42 L 32 42 Z"/></svg>