<svg xmlns="http://www.w3.org/2000/svg"  viewBox="0 0 50 50" width="50px" height="50px"><path d="M 27.5 0 C 19.449219 0 13.664063 3.070313 9.84375 7.625 C 6.023438 12.179688 4.121094 18.136719 3.40625 23.96875 C 3.105469 26.535156 2.71875 30.25 2.1875 33.84375 C 1.65625 37.4375 0.964844 40.933594 0.09375 43 C -0.121094 43.332031 -0.117188 43.761719 0.101563 44.09375 C 0.320313 44.421875 0.714844 44.59375 1.105469 44.523438 C 1.496094 44.457031 1.808594 44.164063 1.90625 43.78125 C 2.933594 41.347656 3.644531 37.78125 4.1875 34.125 C 4.730469 30.46875 5.109375 26.753906 5.40625 24.21875 C 6.089844 18.652344 7.929688 13.050781 11.40625 8.90625 C 14.882813 4.761719 19.949219 2 27.5 2 C 32.152344 2 34.816406 3.039063 36.375 4.15625 C 37.25 4.78125 37.777344 5.429688 38.125 6 C 37.195313 6.015625 36.347656 6.390625 35.90625 7.0625 C 35.457031 7.75 35.449219 8.511719 35.5 9.21875 C 35.601563 10.621094 36.046875 12.085938 36.09375 13 C 36.09375 13.007813 36.09375 13.023438 36.09375 13.03125 C 36.09375 13.09375 36.078125 13.101563 36 13.1875 C 35.910156 13.289063 35.710938 13.445313 35.40625 13.59375 C 34.796875 13.890625 33.824219 14.171875 32.8125 14.46875 C 31.800781 14.765625 30.753906 15.105469 29.84375 15.65625 C 28.933594 16.207031 28.09375 17.164063 28.09375 18.40625 C 28.09375 19.410156 28.757813 20.175781 29.5 20.65625 C 30.242188 21.136719 31.15625 21.457031 32.09375 21.65625 C 32.914063 21.828125 33.742188 21.917969 34.53125 21.9375 C 34.171875 22.730469 33.90625 23.78125 33.90625 25.09375 C 33.90625 26.367188 34.234375 28.167969 34.71875 30.34375 C 35.203125 32.519531 35.832031 35.042969 36.46875 37.53125 C 37.105469 40.019531 37.746094 42.472656 38.21875 44.53125 C 38.691406 46.589844 39 48.304688 39 49 C 38.996094 49.359375 39.183594 49.695313 39.496094 49.878906 C 39.808594 50.058594 40.191406 50.058594 40.503906 49.878906 C 40.816406 49.695313 41.003906 49.359375 41 49 C 41 47.84375 40.671875 46.191406 40.1875 44.09375 C 39.703125 41.996094 39.042969 39.519531 38.40625 37.03125 C 37.769531 34.542969 37.160156 32.035156 36.6875 29.90625 C 36.214844 27.777344 35.90625 25.972656 35.90625 25.09375 C 35.90625 23.726563 36.257813 22.855469 36.59375 22.3125 C 36.929688 21.769531 37.1875 21.625 37.1875 21.625 C 37.222656 21.597656 37.253906 21.566406 37.28125 21.53125 C 39.261719 20.75 40.90625 20.726563 42.15625 20.9375 C 43.386719 21.144531 44.226563 21.605469 44.46875 21.78125 C 44.472656 21.785156 44.496094 21.808594 44.5 21.8125 C 46.0625 23.070313 46.09375 24.34375 46.09375 24.34375 C 46.113281 24.769531 46.402344 25.132813 46.8125 25.253906 C 47.21875 25.371094 47.660156 25.222656 47.90625 24.875 C 47.90625 24.875 50 22.097656 50 18.5 C 50 16.15625 48.980469 14.152344 47.59375 12.5625 C 46.273438 11.046875 44.617188 9.898438 43.09375 9.0625 C 42.617188 7.621094 41.535156 6.660156 40.5 6.3125 C 40.179688 5.421875 39.398438 3.871094 37.53125 2.53125 C 35.566406 1.121094 32.449219 0 27.5 0 Z M 29.40625 6.09375 C 29.03125 6.160156 28.730469 6.433594 28.625 6.796875 C 28.519531 7.164063 28.628906 7.554688 28.90625 7.8125 C 29.332031 8.238281 29.785156 8.546875 30.25 8.8125 C 29.453125 8.921875 28.601563 9 27.59375 9 C 24.199219 9 21.601563 9.996094 19.65625 11 C 17.710938 12.003906 16.257813 12.933594 15.84375 13 C 15.292969 13.035156 14.871094 13.511719 14.90625 14.0625 C 14.941406 14.613281 15.417969 15.035156 15.96875 15 C 17.679688 15.046875 18.929688 15.5625 19.75 16.28125 C 20.570313 17 21 17.921875 21 19 C 21 21.449219 19.632813 24.082031 17.53125 28.125 C 15.429688 32.167969 12.679688 37.566406 10.15625 45.59375 C 10.023438 45.941406 10.097656 46.332031 10.34375 46.613281 C 10.589844 46.890625 10.96875 47.007813 11.332031 46.917969 C 11.691406 46.832031 11.972656 46.546875 12.0625 46.1875 C 14.539063 38.3125 17.214844 33.09375 19.3125 29.0625 C 21.410156 25.03125 23 22.152344 23 19 C 23 17.378906 22.324219 15.859375 21.09375 14.78125 C 20.539063 14.292969 19.839844 13.917969 19.09375 13.625 C 19.5625 13.335938 20 13.074219 20.5625 12.78125 C 21.542969 12.273438 22.683594 11.773438 24 11.4375 C 24 11.460938 24 11.476563 24 11.5 C 24 13.421875 25.578125 15 27.5 15 C 29.421875 15 31 13.421875 31 11.5 C 31 11.394531 31.03125 11.105469 30.96875 10.75 C 32.066406 10.558594 33.109375 10.234375 34.09375 9.65625 C 34.457031 9.429688 34.636719 8.996094 34.535156 8.578125 C 34.4375 8.160156 34.082031 7.851563 33.65625 7.8125 C 33.65625 7.8125 31.574219 7.667969 30.3125 6.40625 C 30.105469 6.183594 29.804688 6.070313 29.5 6.09375 C 29.46875 6.09375 29.4375 6.09375 29.40625 6.09375 Z M 38.1875 8 C 38.207031 8 38.230469 8 38.25 8 C 38.25 8 39.050781 7.960938 39.84375 8.21875 C 40.636719 8.476563 41.261719 8.851563 41.40625 9.9375 C 41.449219 10.257813 41.648438 10.539063 41.9375 10.6875 C 43.355469 11.445313 44.898438 12.539063 46.0625 13.875 C 47.226563 15.210938 48 16.742188 48 18.5 C 48 19.804688 47.613281 20.976563 47.21875 21.90625 C 47.019531 21.578125 46.765625 21.261719 46.46875 20.9375 C 46.421875 20.757813 46.324219 20.597656 46.1875 20.46875 C 43.070313 17.5625 39.933594 16.65625 37.59375 16.53125 C 35.253906 16.40625 33.625 17.0625 33.625 17.0625 C 33.105469 17.269531 32.855469 17.855469 33.0625 18.375 C 33.269531 18.894531 33.855469 19.144531 34.375 18.9375 C 34.375 18.9375 35.5625 18.429688 37.5 18.53125 C 38.121094 18.5625 38.820313 18.675781 39.5625 18.875 C 38.621094 18.984375 37.609375 19.230469 36.53125 19.65625 C 36.519531 19.667969 36.511719 19.675781 36.5 19.6875 C 35.988281 19.902344 34.054688 20.015625 32.5 19.6875 C 31.722656 19.523438 31.015625 19.273438 30.59375 19 C 30.171875 18.726563 30.09375 18.554688 30.09375 18.40625 C 30.09375 17.949219 30.285156 17.699219 30.875 17.34375 C 31.464844 16.988281 32.386719 16.695313 33.375 16.40625 C 34.363281 16.117188 35.390625 15.84375 36.28125 15.40625 C 36.726563 15.1875 37.152344 14.921875 37.5 14.53125 C 37.847656 14.140625 38.09375 13.585938 38.09375 13 C 38.09375 12.988281 38.09375 12.980469 38.09375 12.96875 C 38.035156 11.582031 37.574219 10.074219 37.5 9.0625 C 37.464844 8.554688 37.542969 8.234375 37.59375 8.15625 C 37.644531 8.078125 37.644531 8 38.1875 8 Z M 27.59375 11 C 27.648438 11 27.695313 11 27.75 11 C 27.734375 11.066406 27.6875 11.117188 27.6875 11.1875 C 27.6875 11.738281 28.136719 12.1875 28.6875 12.1875 C 28.742188 12.1875 28.792969 12.164063 28.84375 12.15625 C 28.613281 12.667969 28.132813 13 27.5 13 C 26.625 13 26 12.375 26 11.5 C 26 11.453125 26.054688 11.257813 26.09375 11.09375 C 26.574219 11.046875 27.070313 11 27.59375 11 Z M 41 11.46875 C 40.957031 11.476563 40.914063 11.488281 40.875 11.5 C 40.410156 11.605469 40.082031 12.023438 40.09375 12.5 C 40.09375 13.167969 39.84375 13.46875 39.84375 13.46875 C 39.589844 13.738281 39.503906 14.128906 39.625 14.480469 C 39.746094 14.832031 40.050781 15.085938 40.417969 15.144531 C 40.785156 15.199219 41.152344 15.050781 41.375 14.75 C 41.375 14.75 42.09375 13.832031 42.09375 12.5 C 42.105469 12.210938 41.988281 11.933594 41.78125 11.738281 C 41.570313 11.539063 41.285156 11.441406 41 11.46875 Z"/></svg>