<svg xmlns="http://www.w3.org/2000/svg"  viewBox="0 0 50 50" width="50px" height="50px"><path d="M 7.34375 0 C 6.9375 0.0703125 6.617188 0.378906 6.53125 0.78125 C 6.527344 0.769531 6.515625 0.769531 6.5 0.8125 C 6.464844 0.898438 6.398438 1.085938 6.25 1.34375 C 5.953125 1.863281 5.371094 2.746094 4.25 4.0625 C 4.238281 4.0625 4.230469 4.0625 4.21875 4.0625 C 2.632813 6 2.894531 8.144531 3.59375 9.53125 C 3.679688 9.703125 3.777344 9.84375 3.875 10 L 3 10 C 2.96875 10 2.9375 10 2.90625 10 C 2.875 10 2.84375 10 2.8125 10 C 2.335938 10.089844 1.992188 10.511719 2 11 L 2 14 C 2 14.550781 2.449219 15 3 15 L 3.90625 15 C 3.851563 15.421875 3.878906 15.871094 4 16.3125 C 4.273438 17.304688 5.203125 18.113281 6.5 18.625 C 6.808594 21.054688 7.265625 23.535156 7.6875 25.5 C 8.140625 27.59375 8.484375 28.984375 8.65625 29.5 C 8.660156 29.507813 8.652344 29.523438 8.65625 29.53125 C 8.839844 30.101563 9.261719 31.289063 9.5625 32.1875 C 9.339844 32.699219 8.957031 33.617188 8.46875 34.9375 C 7.804688 36.738281 7.09375 38.828125 7.09375 40.5 C 7.09375 43.308594 8.816406 44.964844 10.5 45.625 C 11.78125 46.125 12.902344 46.179688 13.625 46.1875 C 13.6875 46.324219 13.707031 46.480469 13.78125 46.625 C 14.003906 47.0625 14.265625 47.535156 14.53125 47.96875 C 15.0625 48.835938 15.5625 49.5625 15.5625 49.5625 C 15.753906 49.839844 16.070313 50.003906 16.40625 50 L 44.90625 50 C 45.273438 49.996094 45.609375 49.792969 45.78125 49.46875 L 48.46875 44.375 C 48.507813 44.304688 48.539063 44.234375 48.5625 44.15625 C 48.65625 43.785156 48.65625 43.371094 48.53125 42.96875 C 48.40625 42.566406 48.125 42.140625 47.65625 41.90625 L 41.84375 39 C 41.625 38.890625 41.386719 38.828125 41.15625 38.8125 C 40.925781 38.796875 40.699219 38.835938 40.5 38.90625 C 40.097656 39.050781 39.777344 39.335938 39.5625 39.65625 C 39.539063 39.6875 39.519531 39.71875 39.5 39.75 L 39.46875 39.84375 C 38.9375 38.386719 38.273438 37.15625 37.46875 36.21875 C 36.246094 34.796875 34.660156 34 33 34 L 24.59375 34 C 24.433594 34 23.667969 33.746094 22.84375 33.25 C 22.019531 32.753906 21.09375 32.070313 20.21875 31.375 C 18.472656 29.984375 17 28.5625 17 28.5625 C 16.933594 28.5 16.859375 28.449219 16.78125 28.40625 C 16.769531 28.394531 16.761719 28.386719 16.75 28.375 C 16.730469 28.363281 16.707031 28.351563 16.6875 28.34375 C 16.675781 28.34375 16.667969 28.34375 16.65625 28.34375 C 16.636719 28.332031 16.613281 28.320313 16.59375 28.3125 C 16.582031 28.3125 16.574219 28.3125 16.5625 28.3125 C 16.542969 28.300781 16.519531 28.289063 16.5 28.28125 C 16.488281 28.28125 16.480469 28.28125 16.46875 28.28125 C 16.449219 28.28125 16.425781 28.28125 16.40625 28.28125 C 16.394531 28.28125 16.386719 28.28125 16.375 28.28125 C 15.890625 27.296875 15.421875 26.234375 14.9375 25.15625 C 16.277344 25.375 17.859375 25.609375 19.375 25.78125 C 19.628906 26.429688 19.980469 27.050781 20.4375 27.59375 C 20.765625 28.589844 21.25 29.527344 21.84375 30.34375 C 22.917969 31.824219 24.3125 33 26 33 C 27.671875 33 29.078125 31.84375 30.15625 30.375 C 30.75 29.566406 31.234375 28.625 31.5625 27.625 C 32.054688 27.089844 32.4375 26.445313 32.6875 25.75 C 35.792969 25.359375 39.59375 24.859375 39.59375 24.59375 C 39.59375 24.324219 36.074219 23.859375 32.96875 23.46875 C 32.917969 22.984375 32.828125 22.5 32.65625 22.0625 C 35.113281 20.226563 37.902344 17.992188 37.8125 17.8125 C 37.722656 17.542969 34.28125 18.925781 31.40625 20.15625 C 31.109375 19.851563 30.765625 19.59375 30.40625 19.34375 C 31.640625 16.460938 33.082031 12.996094 32.8125 12.90625 C 32.546875 12.730469 30.257813 15.824219 28.34375 18.34375 C 27.972656 18.230469 27.582031 18.152344 27.1875 18.09375 C 26.796875 14.960938 26.269531 11 26 11 C 25.730469 11 25.203125 14.960938 24.8125 18.09375 C 24.453125 18.148438 24.09375 18.214844 23.75 18.3125 C 21.878906 15.792969 19.457031 12.722656 19.1875 12.8125 C 18.914063 12.902344 20.382813 16.472656 21.625 19.3125 C 21.25 19.566406 20.902344 19.839844 20.59375 20.15625 C 17.734375 18.925781 14.367188 17.542969 14.1875 17.8125 C 14.097656 18.082031 16.890625 20.242188 19.34375 22.0625 C 19.175781 22.492188 19.082031 22.964844 19.03125 23.4375 C 17.402344 23.625 15.671875 23.820313 14.4375 24.0625 C 13.40625 21.683594 12.441406 19.230469 11.75 17 C 11.628906 16.175781 11.484375 15.539063 11.34375 15 L 12 15 C 12.550781 15 13 14.550781 13 14 L 13 11 C 13 10.449219 12.550781 10 12 10 L 11.3125 10 C 11.390625 9.847656 11.453125 9.675781 11.53125 9.5 C 11.53125 9.488281 11.53125 9.480469 11.53125 9.46875 C 12.070313 8.15625 12.09375 6.835938 11.90625 5.71875 C 11.71875 4.601563 11.367188 3.707031 10.90625 3.09375 C 10.679688 2.796875 10.304688 2.652344 9.9375 2.71875 C 9.785156 2.105469 9.53125 1.5625 9.21875 1.1875 C 8.660156 0.519531 8 0.15625 8 0.15625 C 7.804688 0.03125 7.574219 -0.0273438 7.34375 0 Z M 7.71875 2.6875 C 7.941406 3.003906 8.148438 3.292969 8.03125 3.71875 C 8.03125 3.738281 8.03125 3.761719 8.03125 3.78125 C 7.828125 4.699219 8.203125 5.6875 9.28125 5.875 C 9.476563 5.910156 9.585938 5.6875 9.78125 5.625 C 9.832031 5.804688 9.90625 5.832031 9.9375 6.03125 C 10.074219 6.855469 10.039063 7.808594 9.6875 8.6875 C 9.683594 8.699219 9.691406 8.707031 9.6875 8.71875 C 9.382813 9.402344 9.074219 9.792969 8.90625 9.96875 C 8.859375 10.019531 8.890625 9.980469 8.875 10 L 6.40625 10 C 6.167969 9.773438 5.730469 9.328125 5.375 8.625 C 4.898438 7.683594 4.667969 6.707031 5.78125 5.34375 L 5.75 5.34375 C 5.757813 5.335938 5.742188 5.320313 5.75 5.3125 C 6.78125 4.097656 7.328125 3.328125 7.71875 2.6875 Z M 4 12 L 8.65625 12 C 8.90625 12.105469 9.1875 12.105469 9.4375 12 L 11 12 L 11 13 L 10.25 13 C 10.179688 12.980469 10.105469 12.972656 10.03125 12.96875 C 9.96875 12.972656 9.90625 12.984375 9.84375 13 L 5.90625 13 C 5.734375 12.941406 5.550781 12.929688 5.375 12.96875 C 5.34375 12.976563 5.3125 12.988281 5.28125 13 L 4 13 Z M 6 15 L 9.3125 15 C 9.464844 15.449219 9.644531 16.148438 9.8125 17.4375 C 9.820313 17.492188 9.828125 17.542969 9.84375 17.59375 C 11.136719 21.773438 13.269531 26.632813 15.15625 30.34375 C 14.953125 31.839844 14.523438 34.5625 13.75 37.03125 C 13.683594 37.246094 13.605469 37.445313 13.53125 37.65625 C 13.019531 36.171875 12.503906 34.738281 11.6875 32.3125 C 11.6875 32.300781 11.6875 32.292969 11.6875 32.28125 C 11.769531 31.925781 11.648438 31.554688 11.375 31.3125 C 11.109375 30.523438 10.722656 29.40625 10.5625 28.90625 C 10.5625 28.894531 10.5625 28.886719 10.5625 28.875 C 10.53125 28.78125 10.070313 27.128906 9.625 25.0625 C 9.179688 22.996094 8.699219 20.375 8.40625 17.875 C 8.351563 17.457031 8.039063 17.121094 7.625 17.03125 C 6.382813 16.742188 6.027344 16.222656 5.90625 15.78125 C 5.824219 15.488281 5.910156 15.199219 6 15 Z M 26 20 C 28.121094 20 29.847656 21.027344 30.59375 22.4375 C 30.386719 22.269531 30.167969 22.101563 29.9375 21.96875 C 28.804688 21.320313 27.410156 21 26 21 C 24.578125 21 23.1875 21.339844 22.0625 22 C 21.820313 22.140625 21.59375 22.289063 21.375 22.46875 C 22.113281 21.039063 23.859375 20 26 20 Z M 26 23 C 27.089844 23 28.195313 23.292969 28.9375 23.71875 C 29.679688 24.144531 30 24.582031 30 25.09375 C 30 25.621094 29.902344 26.171875 29.75 26.71875 C 29.679688 26.84375 29.636719 26.980469 29.625 27.125 C 29.371094 27.867188 29.003906 28.585938 28.5625 29.1875 C 27.714844 30.34375 26.628906 31 26 31 C 25.386719 31 24.289063 30.328125 23.4375 29.15625 C 22.988281 28.535156 22.628906 27.808594 22.375 27.0625 C 22.359375 26.929688 22.316406 26.804688 22.25 26.6875 C 22.097656 26.148438 22 25.597656 22 25.09375 C 22 24.65625 22.3125 24.191406 23.0625 23.75 C 23.8125 23.308594 24.921875 23 26 23 Z M 17.03125 31.28125 C 17.582031 31.773438 18.226563 32.34375 18.96875 32.9375 C 19.882813 33.667969 20.863281 34.398438 21.8125 34.96875 C 22.761719 35.539063 23.605469 36 24.59375 36 L 33 36 C 34.042969 36 35.011719 36.453125 35.9375 37.53125 C 36.816406 38.554688 37.597656 40.179688 38.125 42.375 L 35.1875 48 L 16.9375 48 C 16.765625 47.746094 16.601563 47.484375 16.25 46.90625 C 16.027344 46.542969 15.800781 46.175781 15.625 45.84375 C 16.585938 45.359375 17.296875 44.449219 17.84375 43.65625 C 18.636719 42.507813 19.125 41.40625 19.125 41.40625 C 19.285156 41.078125 19.257813 40.691406 19.050781 40.390625 C 18.839844 40.09375 18.488281 39.929688 18.125 39.96875 C 18.082031 39.976563 18.039063 39.988281 18 40 C 17.675781 40.066406 17.410156 40.289063 17.28125 40.59375 C 17.28125 40.59375 16.84375 41.578125 16.1875 42.53125 C 15.542969 43.464844 14.6875 44.160156 14.21875 44.1875 C 14.191406 44.1875 14.125 44.1875 14.09375 44.1875 C 13.488281 44.1875 12.308594 44.175781 11.21875 43.75 C 11.070313 43.691406 10.921875 43.628906 10.78125 43.5625 C 11.660156 43.539063 12.457031 43.136719 13.0625 42.5625 C 13.441406 42.207031 13.765625 41.777344 14.0625 41.3125 C 14.097656 41.273438 14.128906 41.230469 14.15625 41.1875 C 14.164063 41.175781 14.179688 41.167969 14.1875 41.15625 C 14.25 41.082031 14.304688 40.996094 14.34375 40.90625 C 14.367188 40.855469 14.390625 40.804688 14.40625 40.75 C 14.40625 40.738281 14.40625 40.730469 14.40625 40.71875 C 14.910156 39.785156 15.3125 38.722656 15.65625 37.625 C 16.382813 35.300781 16.796875 32.90625 17.03125 31.28125 Z M 10.53125 35.125 C 11.449219 37.808594 12.179688 39.90625 12.3125 40.28125 C 12.105469 40.605469 11.894531 40.898438 11.6875 41.09375 C 11.320313 41.441406 11.035156 41.558594 10.71875 41.5625 C 10.402344 41.566406 9.960938 41.449219 9.34375 40.9375 C 9.269531 40.875 9.183594 40.820313 9.09375 40.78125 C 9.089844 40.6875 9.09375 40.601563 9.09375 40.5 C 9.09375 39.472656 9.707031 37.347656 10.34375 35.625 C 10.414063 35.433594 10.460938 35.308594 10.53125 35.125 Z M 41.15625 40.90625 L 46.625 43.625 C 46.625 43.636719 46.628906 43.648438 46.625 43.65625 L 44.3125 48 L 37.4375 48 L 39.96875 43.15625 C 39.980469 43.144531 39.988281 43.136719 40 43.125 L 40.15625 42.8125 C 40.167969 42.78125 40.179688 42.75 40.1875 42.71875 Z"/></svg>