<?xml version="1.0"?><svg xmlns="http://www.w3.org/2000/svg"  viewBox="0 0 50 50" width="50px" height="50px">    <path d="M 7 2 L 7 48 L 43 48 L 43 15.410156 L 29.183594 2 L 7 2 z M 9 4 L 28 4 L 28 17 L 41 17 L 41 46 L 9 46 L 9 4 z M 30 5.578125 L 39.707031 15 L 30 15 L 30 5.578125 z M 21.453125 23.5 C 20.703125 23.5 19.953531 23.578219 19.394531 23.699219 L 19.394531 33.65625 L 21.359375 33.65625 L 21.359375 29.890625 L 21.75 29.890625 C 22.563 29.890625 23.581937 29.589594 24.210938 28.933594 C 24.733937 28.363594 25.066406 27.596047 25.066406 26.498047 C 25.066406 25.647047 24.797312 24.80925 24.195312 24.28125 C 23.535312 23.66825 22.621125 23.5 21.453125 23.5 z M 25.21875 23.546875 L 27.4375 29.785156 L 27.4375 33.65625 L 29.402344 33.65625 L 29.402344 29.710938 L 31.669922 23.546875 L 29.626953 23.546875 L 29.027344 25.917969 C 28.843344 26.636969 28.6795 27.370469 28.5625 28.105469 L 28.53125 28.105469 C 28.38325 27.355469 28.188766 26.605937 28.009766 25.960938 L 27.318359 23.546875 L 25.21875 23.546875 z M 21.84375 25.09375 C 22.75775 25.09375 23.113281 25.781969 23.113281 26.667969 C 23.112281 27.612969 22.663781 28.316406 21.675781 28.316406 C 21.554781 28.316406 21.452375 28.316156 21.359375 28.285156 L 21.359375 25.167969 C 21.480375 25.120969 21.66075 25.09375 21.84375 25.09375 z"/></svg>