<svg xmlns="http://www.w3.org/2000/svg"  viewBox="0 0 50 50" width="50px" height="50px"><path d="M 17.667969 -0.04296875 C 16.56048 -0.10459034 15.472854 0.55936921 15.064453 1.6484375 A 1.0001 1.0001 0 0 0 15.03125 1.75 C 14.749851 2.8353976 14.149379 3.5575431 13.019531 4.1171875 C 11.889683 4.6768319 10.205797 5 8 5 C 3.5700855 5 0 8.5700855 0 13 C 0 17.24188 2.3139054 19.672058 4.5429688 20.814453 C 5.984351 21.553162 7.169293 21.780006 8 21.884766 L 8 46.5 C 8 48.42381 9.5761905 50 11.5 50 C 13.42381 50 15 48.42381 15 46.5 L 15 31 C 15 31.05539 15.07056 30.773269 15.486328 30.412109 C 15.830639 30.113022 16.375435 29.781967 17 29.46875 L 17 46.5 C 17 48.42381 18.57619 50 20.5 50 C 22.42381 50 24 48.42381 24 46.5 L 24 28.066406 C 25.60199 28.213692 27.295818 28.671002 28.625 29.273438 C 29.429275 29.637964 30.097904 30.05095 30.513672 30.412109 C 30.929439 30.773269 31 31.055392 31 31 L 31 46.5 C 31 48.42381 32.57619 50 34.5 50 C 36.42381 50 38 48.42381 38 46.5 L 38 32 C 38 31.445455 38.445455 31 39 31 C 39.554545 31 40 31.445455 40 32 L 40 46.5 C 40 48.42381 41.57619 50 43.5 50 C 45.42381 50 47 48.42381 47 46.5 L 47 20 A 1.0001 1.0001 0 0 0 46.998047 19.955078 C 48.825045 18.505847 50 16.401889 50 14 L 50 4 A 1.0001 1.0001 0 0 0 48.292969 3.2929688 L 44.746094 6.8398438 C 43.588519 6.3535721 42.327481 6 41 6 C 39.68425 6 38.395299 6.3458682 37.253906 6.8398438 L 33.707031 3.2929688 A 1.0001 1.0001 0 0 0 32.984375 3 A 1.0001 1.0001 0 0 0 32 4 L 32 13.398438 C 29.456712 12.494864 25.926601 12 22 12 C 18.916082 12 15.776342 13.052744 13.173828 14.068359 C 11.872571 14.576167 10.706541 15.079897 9.7792969 15.445312 C 8.8520529 15.810729 8.0796296 16 8 16 C 6.3454545 16 5 14.654545 5 13 C 5 11.345455 6.3454545 10 8 10 C 11.944737 10 14.692578 9.138316 16.574219 7.8183594 C 18.455859 6.4984027 19.414245 4.7386176 19.861328 3.1738281 A 1.0001 1.0001 0 0 0 19.871094 3.1425781 C 20.185194 1.8860405 19.496603 0.53119668 18.251953 0.064453125 A 1.0001 1.0001 0 0 0 18.142578 0.029296875 C 17.985511 -0.0099699275 17.826181 -0.034165666 17.667969 -0.04296875 z M 17.378906 1.9980469 C 17.444378 1.9928691 17.514759 1.9972044 17.587891 2.0078125 C 17.86054 2.1460045 17.998339 2.347021 17.925781 2.6503906 C 17.570649 3.8778617 16.884057 5.1586713 15.425781 6.1816406 C 13.957419 7.211684 11.655263 8 8 8 C 5.2545455 8 3 10.254545 3 13 C 3 15.745455 5.2545455 18 8 18 C 8.8203704 18 9.5358375 17.689271 10.511719 17.304688 C 11.4876 16.920103 12.639148 16.423833 13.900391 15.931641 C 16.422877 14.947256 19.383918 14 22 14 C 26.277828 14 30.100653 14.688322 32.185547 15.625 C 33.036065 19.324809 36.733169 22 41 22 C 42.426377 22 43.785711 21.694466 45 21.158203 L 45 46.5 C 45 47.37619 44.37619 48 43.5 48 C 42.62381 48 42 47.37619 42 46.5 L 42 32 C 42 30.354545 40.645455 29 39 29 C 37.354545 29 36 30.354545 36 32 L 36 46.5 C 36 47.37619 35.37619 48 34.5 48 C 33.62381 48 33 47.37619 33 46.5 L 33 31 C 33 30.094608 32.457279 29.45056 31.826172 28.902344 C 31.195064 28.354128 30.384397 27.874144 29.451172 27.451172 C 27.638183 26.629458 25.371966 26.039248 23.193359 26.005859 A 1.0001 1.0001 0 0 0 22.984375 25.986328 A 1.0001 1.0001 0 0 0 22.804688 26.005859 C 20.626677 26.039572 18.361277 26.629703 16.548828 27.451172 C 15.615603 27.874144 14.804936 28.354128 14.173828 28.902344 C 13.542721 29.45056 13 30.094608 13 31 L 13 46.5 C 13 47.37619 12.37619 48 11.5 48 C 10.62381 48 10 47.37619 10 46.5 L 10 21 A 1.0001 1.0001 0 0 0 9.0253906 20 C 9.0253906 20 7.2279679 19.94276 5.4570312 19.035156 C 3.6860947 18.127551 2 16.55812 2 13 C 2 9.6299145 4.6299145 7 8 7 C 10.394203 7 12.361098 6.6735587 13.90625 5.9082031 C 15.418059 5.1593634 16.497365 3.9170389 16.935547 2.3515625 L 16.9375 2.3476562 C 17.027993 2.1104807 17.18376 2.0134797 17.378906 1.9980469 z M 34 6.4140625 L 36.292969 8.7070312 A 1.0001 1.0001 0 0 0 37.478516 8.8769531 C 38.407037 8.3704869 39.790476 8 41 8 C 42.209524 8 43.471991 8.3541598 44.552734 8.8945312 A 1.0001 1.0001 0 0 0 45.707031 8.7070312 L 48 6.4140625 L 48 14 C 48 17.284615 44.930303 20 41 20 C 37.069697 20 34 17.284615 34 14 L 34 6.4140625 z M 37.5 11 C 36.672 11 36 11.672 36 12.5 C 36 13.328 36.672 14 37.5 14 C 38.328 14 39 13.328 39 12.5 C 39 11.672 38.328 11 37.5 11 z M 44.5 11 C 43.672 11 43 11.672 43 12.5 C 43 13.328 43.672 14 44.5 14 C 45.328 14 46 13.328 46 12.5 C 46 11.672 45.328 11 44.5 11 z M 22 28.066406 L 22 46.5 C 22 47.37619 21.37619 48 20.5 48 C 19.62381 48 19 47.37619 19 46.5 L 19 28.673828 C 19.966605 28.372619 20.995188 28.158788 22 28.066406 z"/></svg>