<svg xmlns="http://www.w3.org/2000/svg"  viewBox="0 0 50 50" width="50px" height="50px"><path d="M 9.90625 12.1875 C 8.871094 12.1875 8 12.933594 8 14 L 8 18.3125 L 2.1875 18.3125 C 1.554688 18.3125 1.039063 18.585938 0.65625 18.96875 C 0.273438 19.351563 0 19.867188 0 20.5 L 0 34.8125 C 0 35.445313 0.273438 35.960938 0.65625 36.34375 C 1.039063 36.726563 1.554688 37 2.1875 37 L 2.21875 37 L 13 36.90625 C 13.898438 36.90625 14.8125 36.128906 14.8125 35.09375 L 14.8125 14 C 14.8125 13.101563 14.035156 12.1875 13 12.1875 Z M 17.6875 13.1875 C 16.488281 13.1875 16.09375 13.605469 16.09375 14.90625 L 16.09375 15.6875 C 16.09375 16.886719 16.488281 17.40625 17.6875 17.40625 L 18.09375 17.40625 C 19.195313 17.40625 19.59375 16.90625 19.59375 15.90625 L 19.59375 15.8125 L 18.5 15.8125 L 18.5 15.90625 C 18.5 16.304688 18.40625 16.5 17.90625 16.5 C 17.40625 16.5 17.3125 16.289063 17.3125 15.6875 L 17.3125 15 C 17.3125 14.398438 17.304688 14.1875 17.90625 14.1875 C 18.304688 14.1875 18.5 14.289063 18.5 14.6875 L 18.5 14.8125 L 19.59375 14.8125 L 19.59375 14.6875 C 19.59375 13.585938 19.199219 13.1875 18 13.1875 Z M 42.8125 13.1875 C 41.613281 13.1875 41.1875 13.605469 41.1875 14.90625 L 41.1875 15.6875 C 41.1875 16.886719 41.613281 17.40625 42.8125 17.40625 L 43.1875 17.40625 C 44.289063 17.40625 44.6875 16.90625 44.6875 15.90625 L 44.6875 15.8125 L 43.59375 15.8125 L 43.59375 15.90625 C 43.59375 16.304688 43.5 16.5 43 16.5 C 42.5 16.5 42.40625 16.289063 42.40625 15.6875 L 42.40625 15 C 42.40625 14.398438 42.398438 14.1875 43 14.1875 C 43.398438 14.1875 43.59375 14.289063 43.59375 14.6875 L 43.59375 14.8125 L 44.6875 14.8125 L 44.6875 14.6875 C 44.6875 13.585938 44.292969 13.1875 43.09375 13.1875 Z M 22 13.3125 C 21.121094 13.40625 20.8125 13.863281 20.8125 15 L 20.8125 15.8125 C 20.8125 17.011719 21.207031 17.5 22.40625 17.5 L 23 17.5 C 24.199219 17.5 24.59375 17.011719 24.59375 15.8125 L 24.59375 15 C 24.59375 13.699219 24.199219 13.3125 23 13.3125 L 22.40625 13.3125 C 22.257813 13.3125 22.125 13.300781 22 13.3125 Z M 25.90625 13.3125 L 25.90625 17.3125 L 27 17.3125 L 27 14.3125 L 27.8125 17.3125 L 28.90625 17.3125 L 29.8125 14.40625 L 29.8125 17.3125 L 30.8125 17.3125 L 30.8125 13.3125 L 29.1875 13.3125 L 28.40625 16.1875 L 27.5 13.3125 Z M 32.3125 13.3125 L 32.3125 17.3125 L 33.40625 17.3125 L 33.40625 16.1875 L 34.1875 16.1875 C 35.289063 16.1875 35.6875 15.8125 35.6875 14.8125 L 35.6875 14.5 C 35.6875 13.601563 35.289063 13.3125 34.1875 13.3125 Z M 37.40625 13.3125 L 36.1875 17.3125 L 37.40625 17.3125 L 37.59375 16.59375 L 39 16.59375 L 39.1875 17.3125 L 40.40625 17.3125 L 39.1875 13.3125 Z M 45.8125 13.3125 L 45.8125 14.1875 L 46.8125 14.1875 L 46.8125 17.3125 L 47.90625 17.3125 L 47.90625 14.1875 L 49 14.1875 L 49 13.3125 Z M 38.40625 14.09375 L 38.8125 15.8125 L 38 15.8125 Z M 10 14.1875 L 12.8125 14.1875 L 12.8125 34.90625 L 2.1875 35 C 2.222656 35 2.160156 34.972656 2.09375 34.90625 C 2.027344 34.839844 2 34.777344 2 34.8125 L 2 20.5 C 2 20.535156 2.027344 20.441406 2.09375 20.375 C 2.160156 20.308594 2.222656 20.3125 2.1875 20.3125 L 10 20.3125 Z M 22.59375 14.1875 L 22.8125 14.1875 C 23.414063 14.1875 23.40625 14.398438 23.40625 15 L 23.40625 15.59375 C 23.40625 16.195313 23.414063 16.40625 22.8125 16.40625 L 22.59375 16.40625 C 21.992188 16.40625 22 16.195313 22 15.59375 L 22 15 C 22 14.398438 21.992188 14.1875 22.59375 14.1875 Z M 33.40625 14.1875 L 34.09375 14.1875 C 34.492188 14.1875 34.59375 14.292969 34.59375 14.59375 L 34.59375 14.90625 C 34.59375 15.304688 34.488281 15.40625 34.1875 15.40625 L 33.40625 15.40625 Z M 17.40625 18.3125 C 16.957031 18.3125 16.476563 18.429688 16.09375 18.78125 C 15.757813 19.089844 15.660156 19.609375 15.6875 20.09375 L 15.59375 20.09375 L 15.59375 35.1875 C 15.59375 35.722656 15.847656 36.160156 16.15625 36.46875 C 16.464844 36.777344 16.871094 37 17.40625 37 L 20.40625 37 C 20.941406 37 21.347656 36.777344 21.65625 36.46875 C 21.964844 36.160156 22.1875 35.722656 22.1875 35.1875 L 22.1875 20.09375 C 22.1875 19.195313 21.441406 18.3125 20.40625 18.3125 Z M 38 18.3125 C 37.101563 18.3125 36.1875 19.058594 36.1875 20.09375 L 36.1875 26.3125 C 36.1875 26.011719 36.132813 25.851563 36.0625 25.6875 C 35.992188 25.523438 35.910156 25.382813 35.78125 25.21875 C 35.523438 24.890625 35.054688 24.5 34.40625 24.5 L 28.6875 24.5 L 28.6875 24 L 34 24 C 34.707031 24 34.949219 23.675781 35.21875 23.40625 C 35.488281 23.136719 35.8125 22.894531 35.8125 22.1875 L 35.8125 20.1875 C 35.8125 19.652344 35.558594 19.246094 35.25 18.9375 C 34.941406 18.628906 34.535156 18.40625 34 18.40625 L 24.5 18.40625 C 23.601563 18.40625 22.6875 19.152344 22.6875 20.1875 L 22.6875 29.09375 C 22.6875 29.878906 23.148438 30.207031 23.4375 30.4375 C 23.582031 30.554688 23.710938 30.644531 23.84375 30.71875 C 23.910156 30.753906 23.984375 30.78125 24.0625 30.8125 C 24.140625 30.84375 24.152344 30.90625 24.5 30.90625 L 30.40625 30.90625 L 30.40625 31.40625 L 24.5 31.40625 C 23.601563 31.40625 22.6875 32.152344 22.6875 33.1875 L 22.6875 35.1875 C 22.6875 35.972656 23.148438 36.300781 23.4375 36.53125 C 23.582031 36.648438 23.710938 36.738281 23.84375 36.8125 C 23.910156 36.847656 23.984375 36.875 24.0625 36.90625 C 24.140625 36.9375 24.152344 37 24.5 37 L 34.40625 37 C 35 37 35.292969 36.777344 35.59375 36.5 C 35.894531 36.222656 36.1875 35.804688 36.1875 35.1875 C 36.1875 35.886719 36.582031 36.246094 36.875 36.5 C 37.023438 36.625 37.183594 36.730469 37.34375 36.8125 C 37.503906 36.894531 37.617188 37 38 37 L 48.09375 37 C 48.628906 37 49.035156 36.777344 49.34375 36.46875 C 49.652344 36.160156 49.90625 35.722656 49.90625 35.1875 L 49.90625 28.09375 L 44 28.09375 L 44 32 L 41.90625 32 L 41.90625 23.1875 L 44 23.1875 L 44 27.3125 L 49.8125 27.3125 L 49.8125 20.09375 C 49.8125 19.832031 49.773438 19.792969 49.75 19.71875 C 49.726563 19.644531 49.6875 19.601563 49.65625 19.53125 C 49.59375 19.390625 49.523438 19.222656 49.40625 19.0625 C 49.171875 18.742188 48.714844 18.3125 48 18.3125 Z M 17.59375 20.3125 L 20.1875 20.3125 L 20.1875 35 L 17.59375 35 Z M 38.1875 20.3125 L 47.8125 20.3125 L 47.8125 25.3125 L 46 25.3125 L 46 23 L 45.96875 23 C 45.980469 22.902344 46.027344 22.609375 45.84375 22.1875 C 45.628906 21.699219 44.933594 21.1875 44.1875 21.1875 L 41.6875 21.1875 C 40.652344 21.1875 39.90625 22.101563 39.90625 23 L 39.90625 32.1875 C 39.90625 32.804688 40.199219 33.222656 40.5 33.5 C 40.800781 33.777344 41.09375 34 41.6875 34 L 44.1875 34 C 44.722656 34 45.160156 33.777344 45.46875 33.46875 C 45.777344 33.160156 46 32.722656 46 32.1875 L 46 30.09375 L 47.90625 30.09375 L 47.90625 35 L 38.1875 35 Z M 24.6875 20.40625 L 33.8125 20.40625 L 33.8125 22 L 26.6875 22 L 26.6875 25.5 L 27.59375 25.5 L 27.59375 26.5 L 34.1875 26.5 L 34.1875 35 L 24.71875 35 C 24.710938 34.996094 24.695313 35.003906 24.6875 35 L 24.6875 33.40625 L 32.40625 33.40625 L 32.40625 28.90625 L 24.71875 28.90625 C 24.710938 28.902344 24.695313 28.910156 24.6875 28.90625 Z M 6.3125 21.40625 C 5.277344 21.40625 4.5 22.289063 4.5 23.1875 L 4.5 32.1875 C 4.5 32.722656 4.722656 33.160156 5.03125 33.46875 C 5.339844 33.777344 5.777344 34 6.3125 34 L 8.8125 34 C 9.347656 34 9.753906 33.777344 10.0625 33.46875 C 10.371094 33.160156 10.59375 32.722656 10.59375 32.1875 L 10.59375 23.1875 C 10.59375 22.289063 9.847656 21.40625 8.8125 21.40625 Z M 6.5 23.40625 L 8.59375 23.40625 L 8.59375 32 L 6.5 32 Z"/></svg>