<svg xmlns="http://www.w3.org/2000/svg"  viewBox="0 0 50 50" width="50px" height="50px"><path d="M 13.90625 0.1875 C 12.699219 0.1875 11.253906 0.5 9.90625 1.53125 C 8.644531 2.492188 7.5 4.128906 6.5 6.5 C 6.242188 6.554688 6.15625 6.503906 5.78125 6.6875 C 5.046875 7.046875 4.144531 7.753906 3.28125 9 C 1.554688 11.492188 0 16.128906 0 25.09375 C 0 33.976563 1.085938 40.0625 2.1875 43.9375 C 3.289063 47.8125 4.46875 49.5625 4.46875 49.5625 C 4.660156 49.839844 4.976563 50.003906 5.3125 50 L 30.5 50 C 30.898438 49.996094 31.257813 49.757813 31.414063 49.390625 C 31.570313 49.027344 31.492188 48.601563 31.21875 48.3125 C 31.21875 48.3125 27.1875 43.742188 24.3125 39.1875 C 25.058594 39.242188 25.835938 39.386719 26.71875 39.6875 C 28.21875 40.195313 30.019531 40.953125 32.4375 41.375 C 34.644531 41.734375 36.742188 41.914063 38.59375 41.3125 C 40.445313 40.710938 41.9375 39.210938 42.65625 36.78125 C 42.742188 36.503906 42.699219 36.199219 42.542969 35.953125 C 42.386719 35.707031 42.132813 35.542969 41.84375 35.5 C 41.84375 35.5 41.140625 35.363281 40.6875 35.28125 C 40.785156 34.902344 40.90625 34.550781 40.90625 34.40625 C 41.007813 33.707031 40.59375 33.59375 40.59375 33.59375 C 40.59375 33.59375 40.144531 34.339844 39.71875 35.09375 C 39.070313 34.957031 38.300781 34.785156 37.4375 34.5625 C 37.621094 34.03125 37.8125 33.476563 37.8125 33.3125 C 37.8125 32.511719 37.40625 32.40625 37.40625 32.40625 C 37.40625 32.40625 36.796875 33.097656 36.15625 34.21875 C 35.550781 34.046875 34.964844 33.867188 34.3125 33.65625 C 34.566406 32.863281 34.8125 32.074219 34.8125 31.8125 C 34.914063 30.710938 34.3125 30.59375 34.3125 30.59375 C 34.3125 30.59375 33.417969 31.6875 32.5625 33.0625 C 32.097656 32.894531 31.628906 32.691406 31.15625 32.5 C 31.257813 32.050781 31.40625 31.660156 31.40625 31.5 C 31.40625 30.800781 31 30.6875 31 30.6875 C 31 30.6875 30.484375 31.222656 29.9375 32 C 29.359375 31.746094 28.789063 31.476563 28.21875 31.1875 C 28.296875 30.800781 28.40625 30.394531 28.40625 30.3125 C 28.507813 29.710938 28.1875 29.59375 28.1875 29.59375 C 28.1875 29.59375 27.742188 30.0625 27.28125 30.6875 C 26.78125 30.410156 26.292969 30.148438 25.8125 29.84375 C 25.90625 29.386719 26 29 26 28.90625 C 26.101563 28.40625 25.6875 28.3125 25.6875 28.3125 C 25.6875 28.3125 25.207031 28.6875 24.90625 29.1875 C 24.265625 28.734375 23.632813 28.265625 23.0625 27.75 C 22.171875 26.964844 20.996094 26.667969 19.71875 26.4375 C 18.441406 26.207031 17.03125 26.070313 15.6875 25.90625 C 14.34375 25.742188 13.050781 25.539063 12.09375 25.1875 C 11.894531 25.113281 11.886719 24.988281 11.71875 24.90625 C 14.042969 24.597656 15.980469 24.027344 17.375 23.34375 C 19.230469 22.4375 20.421875 21.6875 21.40625 21.6875 C 21.816406 21.6875 22.222656 21.71875 22.625 21.78125 C 22.730469 22.535156 22.90625 22.8125 22.90625 22.8125 C 22.90625 22.8125 23.292969 23.011719 23.59375 22.3125 C 23.65625 22.25 23.71875 22.144531 23.78125 22.03125 C 24.21875 22.144531 24.660156 22.261719 25.125 22.40625 C 25.242188 23.421875 25.5 23.8125 25.5 23.8125 C 25.5 23.8125 25.914063 24.011719 26.3125 23.3125 C 26.3125 23.234375 26.398438 23.019531 26.5 22.84375 C 26.554688 22.859375 26.601563 22.886719 26.65625 22.90625 C 27.183594 23.074219 27.75 23.25 28.34375 23.40625 C 28.449219 24.875 28.59375 26 28.59375 26 C 28.59375 26 29.101563 26.113281 29.5 25.3125 C 29.589844 25.039063 29.757813 24.320313 29.9375 23.75 C 30.558594 23.871094 31.207031 23.957031 31.90625 24.03125 C 31.921875 26.089844 32.09375 27.40625 32.09375 27.40625 C 32.09375 27.40625 32.789063 27.601563 33.1875 26.5 C 33.28125 26.222656 33.648438 25.066406 33.9375 24.1875 C 34.0625 24.191406 34.183594 24.1875 34.3125 24.1875 C 34.832031 24.1875 35.34375 24.160156 35.84375 24.125 C 36.046875 27.082031 36.40625 28.90625 36.40625 28.90625 C 36.40625 28.90625 37.207031 28.800781 37.90625 27 C 37.996094 26.453125 38.339844 24.898438 38.625 23.71875 C 39.140625 23.609375 39.640625 23.488281 40.125 23.34375 C 40.234375 25.582031 40.5 27 40.5 27 C 40.5 27 41.210938 26.898438 41.8125 25.5 C 41.996094 25.039063 42.320313 23.558594 42.53125 22.46875 C 43.085938 22.226563 43.625 21.988281 44.125 21.71875 C 44.238281 23.511719 44.5 24.59375 44.5 24.59375 C 44.5 24.59375 45.09375 24.488281 45.59375 23.1875 C 45.761719 22.769531 46.066406 21.433594 46.28125 20.34375 C 47.230469 19.648438 48.003906 18.921875 48.59375 18.25 C 49.355469 17.382813 49.90625 16.691406 49.90625 15.6875 C 49.90625 15.675781 49.90625 15.667969 49.90625 15.65625 C 49.671875 11.390625 48.59375 8.4375 46.71875 6.46875 C 44.84375 4.5 42.277344 3.597656 39.40625 3.1875 C 33.664063 2.367188 26.394531 3.277344 18.78125 1.8125 C 18.699219 1.800781 18.613281 1.800781 18.53125 1.8125 C 18.523438 1.808594 18.507813 1.816406 18.5 1.8125 C 17.105469 0.933594 15.644531 0.1875 13.90625 0.1875 Z M 13.90625 2.1875 C 15.703125 2.1875 17.394531 3.335938 19.375 4.78125 C 21.355469 6.226563 23.570313 7.914063 26.5 8.46875 C 26.871094 8.605469 27.289063 8.511719 27.566406 8.226563 C 27.84375 7.941406 27.921875 7.519531 27.773438 7.152344 C 27.625 6.785156 27.269531 6.542969 26.875 6.53125 C 25.140625 6.203125 23.660156 5.261719 22.1875 4.25 C 28.707031 4.972656 34.691406 4.554688 39.125 5.1875 C 41.765625 5.566406 43.796875 6.316406 45.25 7.84375 C 46.695313 9.363281 47.679688 11.75 47.90625 15.6875 C 47.90625 15.535156 47.710938 16.238281 47.09375 16.9375 C 46.476563 17.636719 45.523438 18.464844 44.3125 19.25 C 41.890625 20.820313 38.441406 22.1875 34.3125 22.1875 C 31.347656 22.1875 29.195313 21.617188 27.25 21 C 25.304688 20.382813 23.527344 19.6875 21.40625 19.6875 C 19.589844 19.6875 18.21875 20.71875 16.5 21.5625 C 14.78125 22.40625 12.6875 23.1875 9.40625 23.1875 C 9.0625 23.179688 8.742188 23.347656 8.550781 23.632813 C 8.359375 23.917969 8.328125 24.28125 8.46875 24.59375 C 9.011719 25.851563 10.167969 26.605469 11.40625 27.0625 C 12.644531 27.519531 14.042969 27.734375 15.4375 27.90625 C 16.832031 28.078125 18.230469 28.203125 19.375 28.40625 C 20.503906 28.609375 21.351563 28.9375 21.71875 29.25 C 21.722656 29.253906 21.746094 29.246094 21.75 29.25 C 28.441406 35.257813 38.308594 36.890625 40.25 37.1875 C 39.6875 38.347656 38.980469 39.078125 37.96875 39.40625 C 36.675781 39.828125 34.859375 39.742188 32.78125 39.40625 C 32.769531 39.402344 32.761719 39.410156 32.75 39.40625 C 30.585938 39.027344 28.9375 38.351563 27.34375 37.8125 C 25.921875 37.332031 24.449219 37.0625 22.84375 37.3125 C 22.492188 37.121094 22.0625 37.160156 21.75 37.40625 C 21.738281 37.417969 21.730469 37.425781 21.71875 37.4375 C 14.375 39.035156 7.941406 34.28125 7.59375 28.75 C 7.558594 28.199219 7.082031 27.777344 6.53125 27.8125 C 5.980469 27.847656 5.558594 28.324219 5.59375 28.875 C 6.027344 35.808594 13.679688 41.132813 22.03125 39.375 C 24.308594 43.214844 26.855469 46.316406 28.34375 48 L 5.875 48 C 5.601563 47.542969 4.972656 46.347656 4.125 43.375 C 3.078125 39.699219 2 33.8125 2 25.09375 C 2 16.359375 3.5625 12.109375 4.9375 10.125 C 5.625 9.132813 6.257813 8.710938 6.6875 8.5 C 7.117188 8.289063 7.21875 8.3125 7.21875 8.3125 C 7.625 8.300781 7.984375 8.039063 8.125 7.65625 C 9.078125 5.222656 10.148438 3.871094 11.125 3.125 C 12.101563 2.378906 13.015625 2.1875 13.90625 2.1875 Z M 13.96875 5.53125 C 12.957031 5.621094 12.03125 6.28125 12.09375 7.40625 C 12.195313 8.707031 12.59375 10.414063 14.09375 11.3125 C 13.992188 9.511719 14.398438 8.394531 15.5 7.59375 C 15.5 9.894531 15.914063 11.394531 16.3125 12.09375 C 18.511719 11.992188 20.011719 10.6875 20.3125 9.6875 C 20.3125 9.6875 18.289063 7.699219 15.6875 6 C 15.199219 5.625 14.574219 5.476563 13.96875 5.53125 Z M 41.3125 8.125 C 41 8.140625 40.8125 8.1875 40.8125 8.1875 C 39.8125 9.289063 40.8125 10.394531 41.8125 11.09375 C 42.8125 11.695313 44.804688 12.3125 44.90625 11.3125 C 44.230469 8.386719 42.253906 8.082031 41.3125 8.125 Z"/></svg>