<svg xmlns="http://www.w3.org/2000/svg"  viewBox="0 0 50 50" width="50px" height="50px"><path d="M 3.6875 12.90625 C 3.410156 12.96875 3.171875 13.148438 3.03125 13.402344 C 2.894531 13.652344 2.871094 13.949219 2.96875 14.21875 C 2.929688 14.390625 2.867188 14.632813 2.8125 14.875 C 2.726563 15.242188 2.652344 15.535156 2.59375 15.78125 C 2.59375 15.792969 2.59375 15.800781 2.59375 15.8125 C 2.570313 15.832031 2.550781 15.851563 2.53125 15.875 C 2.507813 15.894531 2.488281 15.914063 2.46875 15.9375 C 2.46875 15.949219 2.46875 15.957031 2.46875 15.96875 C 2.394531 16.074219 2.34375 16.1875 2.3125 16.3125 C 2.3125 16.324219 2.3125 16.332031 2.3125 16.34375 C 2.3125 16.363281 2.3125 16.386719 2.3125 16.40625 C 2.3125 16.417969 2.3125 16.425781 2.3125 16.4375 C 2.3125 16.457031 2.3125 16.480469 2.3125 16.5 C 2.3125 16.511719 2.3125 16.519531 2.3125 16.53125 C 2.3125 16.5625 2.3125 16.59375 2.3125 16.625 C 2.3125 16.65625 2.3125 16.6875 2.3125 16.71875 C 2.320313 16.75 2.332031 16.78125 2.34375 16.8125 C 2.34375 16.824219 2.34375 16.832031 2.34375 16.84375 C 2.339844 16.855469 2.347656 16.863281 2.34375 16.875 C 2.292969 17.105469 2.214844 17.417969 2.125 17.8125 C 1.941406 18.601563 1.695313 19.65625 1.4375 20.75 C 0.949219 22.839844 0.449219 24.9375 0.28125 25.625 C 0.269531 25.636719 0.261719 25.644531 0.25 25.65625 C -0.0078125 25.953125 -0.0664063 26.367188 0.09375 26.726563 C 0.253906 27.082031 0.609375 27.3125 1 27.3125 L 7.90625 27.3125 C 10.632813 27.3125 13.269531 26.582031 15.375 25.375 C 17.082031 24.394531 18.277344 23 19 21.40625 L 21.59375 29.0625 C 16.28125 29.1875 11.492188 29.578125 7.84375 30.1875 C 5.632813 30.558594 3.828125 31.007813 2.5 31.53125 C 1.835938 31.792969 1.292969 32.042969 0.84375 32.40625 C 0.394531 32.769531 0 33.320313 0 34 C 0 34.679688 0.394531 35.230469 0.84375 35.59375 C 1.292969 35.957031 1.835938 36.207031 2.5 36.46875 C 3.828125 36.992188 5.632813 37.441406 7.84375 37.8125 C 12.261719 38.550781 18.304688 39 25 39 C 31.695313 39 37.738281 38.550781 42.15625 37.8125 C 44.367188 37.441406 46.171875 36.992188 47.5 36.46875 C 48.164063 36.207031 48.707031 35.957031 49.15625 35.59375 C 49.605469 35.230469 50 34.679688 50 34 C 50 33.320313 49.605469 32.769531 49.15625 32.40625 C 48.707031 32.042969 48.164063 31.792969 47.5 31.53125 C 46.171875 31.007813 44.367188 30.558594 42.15625 30.1875 C 37.738281 29.449219 31.695313 29 25 29 C 24.722656 29 24.464844 29 24.1875 29 L 31.65625 20.53125 C 31.125 22.835938 30.699219 24.75 30.5 25.5625 C 30.183594 25.839844 30.078125 26.285156 30.230469 26.679688 C 30.382813 27.070313 30.765625 27.324219 31.1875 27.3125 L 38.09375 27.3125 C 40.820313 27.3125 43.457031 26.582031 45.5625 25.375 C 47.667969 24.167969 49.296875 22.429688 49.78125 20.3125 C 50.265625 18.199219 49.363281 16.203125 47.71875 14.90625 C 46.074219 13.609375 43.726563 12.90625 41 12.90625 L 30.6875 12.90625 C 30.378906 12.914063 30.089844 13.0625 29.90625 13.3125 L 24.96875 19.875 L 22.9375 13.59375 C 22.804688 13.1875 22.425781 12.910156 22 12.90625 L 3.90625 12.90625 C 3.832031 12.898438 3.761719 12.898438 3.6875 12.90625 Z M 4.84375 14.90625 L 21.28125 14.90625 L 23.65625 22.3125 C 23.773438 22.664063 24.078125 22.925781 24.445313 22.984375 C 24.8125 23.042969 25.183594 22.890625 25.40625 22.59375 L 31.1875 14.90625 L 41 14.90625 C 43.375 14.90625 45.320313 15.539063 46.5 16.46875 C 47.679688 17.398438 48.128906 18.488281 47.8125 19.875 C 47.496094 21.257813 46.332031 22.640625 44.5625 23.65625 C 42.792969 24.671875 40.46875 25.3125 38.09375 25.3125 L 32.625 25.3125 C 33.121094 23.21875 34.121094 18.789063 34.375 17.6875 L 37.25 17.6875 C 36.933594 19 36.261719 21.746094 36 22.96875 C 36 22.976563 35.96875 22.992188 35.96875 23 C 35.695313 23.289063 35.617188 23.714844 35.773438 24.078125 C 35.929688 24.445313 36.289063 24.683594 36.6875 24.6875 L 37.90625 24.6875 C 39.4375 24.6875 40.960938 24.421875 42.25 23.75 C 43.539063 23.078125 44.59375 21.945313 44.96875 20.4375 C 44.96875 20.425781 44.96875 20.417969 44.96875 20.40625 C 45.289063 18.996094 44.765625 17.640625 43.71875 16.84375 C 42.671875 16.046875 41.238281 15.6875 39.59375 15.6875 L 38.53125 15.6875 C 38.519531 15.6875 38.511719 15.6875 38.5 15.6875 L 34.0625 15.6875 C 33.785156 15.542969 33.457031 15.539063 33.171875 15.675781 C 32.890625 15.808594 32.6875 16.070313 32.625 16.375 L 23.09375 27.21875 L 19.4375 16.59375 L 19.4375 16.5625 C 19.433594 16.546875 19.441406 16.542969 19.4375 16.53125 C 19.382813 16.367188 19.261719 16.167969 19.09375 16 C 19.09375 16 19.027344 15.894531 18.90625 15.8125 C 18.785156 15.730469 18.570313 15.59375 18.1875 15.59375 C 17.828125 15.59375 17.484375 15.84375 17.34375 16.03125 C 17.203125 16.21875 17.179688 16.367188 17.15625 16.46875 C 17.105469 16.671875 17.09375 16.8125 17.09375 16.8125 C 17.09375 16.835938 17.082031 16.859375 17.09375 16.96875 C 17.105469 17.058594 17.207031 17.269531 17.34375 17.46875 C 17.714844 18.308594 17.703125 19.273438 17.625 19.875 C 17.308594 21.257813 16.144531 22.640625 14.375 23.65625 C 12.605469 24.671875 10.28125 25.3125 7.90625 25.3125 L 2.40625 25.3125 C 2.644531 24.328125 2.964844 22.96875 3.375 21.21875 C 3.632813 20.125 3.878906 19.074219 4.0625 18.28125 C 4.136719 17.960938 4.199219 17.71875 4.25 17.5 L 6.875 17.5 C 6.742188 18.042969 6.585938 18.742188 6.40625 19.46875 C 6.0625 20.863281 5.738281 22.15625 5.59375 22.78125 C 5.296875 23.066406 5.207031 23.507813 5.367188 23.886719 C 5.523438 24.265625 5.902344 24.507813 6.3125 24.5 L 7.5 24.5 C 9.03125 24.5 10.554688 24.203125 11.84375 23.53125 C 13.132813 22.859375 14.1875 21.757813 14.5625 20.25 C 14.5625 20.238281 14.5625 20.230469 14.5625 20.21875 C 14.878906 18.824219 14.414063 17.429688 13.375 16.625 C 12.335938 15.820313 10.878906 15.5 9.1875 15.5 L 4.71875 15.5 C 4.734375 15.425781 4.734375 15.386719 4.75 15.3125 C 4.785156 15.160156 4.8125 15.042969 4.84375 14.90625 Z M 8.9375 17.5 L 9.1875 17.5 C 10.597656 17.5 11.613281 17.824219 12.125 18.21875 C 12.625 18.605469 12.792969 18.972656 12.625 19.75 C 12.621094 19.761719 12.628906 19.769531 12.625 19.78125 C 12.398438 20.660156 11.808594 21.277344 10.90625 21.75 C 10.054688 22.195313 8.898438 22.40625 7.71875 22.4375 C 7.890625 21.71875 8.082031 21 8.34375 19.9375 C 8.53125 19.175781 8.707031 18.429688 8.84375 17.875 C 8.882813 17.714844 8.90625 17.625 8.9375 17.5 Z M 39.28125 17.6875 L 39.59375 17.6875 C 40.949219 17.6875 41.972656 18.003906 42.5 18.40625 C 43.027344 18.808594 43.210938 19.175781 43.03125 19.96875 C 42.808594 20.859375 42.226563 21.492188 41.3125 21.96875 C 40.457031 22.414063 39.308594 22.625 38.125 22.65625 C 38.484375 21.082031 39.074219 18.554688 39.28125 17.6875 Z M 25 31 C 31.605469 31 37.554688 31.445313 41.8125 32.15625 C 43.941406 32.511719 45.65625 32.941406 46.75 33.375 C 47.296875 33.589844 47.683594 33.8125 47.875 33.96875 C 47.898438 33.988281 47.890625 33.984375 47.90625 34 C 47.890625 34.015625 47.898438 34.011719 47.875 34.03125 C 47.683594 34.1875 47.296875 34.410156 46.75 34.625 C 45.65625 35.058594 43.941406 35.488281 41.8125 35.84375 C 37.554688 36.554688 31.605469 37 25 37 C 18.394531 37 12.445313 36.554688 8.1875 35.84375 C 6.058594 35.488281 4.34375 35.058594 3.25 34.625 C 2.703125 34.410156 2.316406 34.1875 2.125 34.03125 C 2.101563 34.011719 2.109375 34.015625 2.09375 34 C 2.109375 33.984375 2.101563 33.988281 2.125 33.96875 C 2.316406 33.8125 2.703125 33.589844 3.25 33.375 C 4.34375 32.941406 6.058594 32.511719 8.1875 32.15625 C 12.445313 31.445313 18.394531 31 25 31 Z M 25 32.5 C 21.6875 32.5 19 33.171875 19 34 C 19 34.828125 21.6875 35.5 25 35.5 C 28.3125 35.5 31 34.828125 31 34 C 31 33.171875 28.3125 32.5 25 32.5 Z"/></svg>