<svg xmlns="http://www.w3.org/2000/svg"  viewBox="0 0 50 50" width="50px" height="50px"><path d="M 15 4 C 7.832 4 2 9.832 2 17 C 2 24.392 6.1318281 29.836562 11.048828 34.101562 C 11.137828 33.291562 11.303203 32.535125 11.533203 31.828125 C 7.3472031 27.975125 4 23.196 4 17 C 4 10.935 8.935 6 15 6 C 18.692 6 22.119969 7.8407813 24.167969 10.925781 L 25 12.181641 L 25.832031 10.925781 C 27.880031 7.8407813 31.308 6 35 6 C 41.065 6 46 10.935 46 17 C 46 23.209 42.6375 27.997469 38.4375 31.855469 C 38.6525 32.630469 38.796859 33.399109 38.880859 34.162109 C 43.829859 29.888109 48 24.428 48 17 C 48 9.832 42.168 4 35 4 C 31.104 4 27.458 5.7342187 25 8.6992188 C 22.542 5.7342188 18.896 4 15 4 z M 23.117188 16.984375 A 1.0001 1.0001 0 0 0 22.107422 17.890625 C 21.748829 21.664831 19.69795 23.966252 17.521484 26.382812 C 15.345019 28.799374 13.001154 31.369935 12.970703 35.341797 C 12.947623 38.387797 14.469217 41.031788 16.412109 42.90625 C 18.355002 44.780712 20.702227 45.968236 22.804688 45.984375 A 1.0001 1.0001 0 0 0 23.582031 44.347656 C 23.233351 43.925996 22.880691 43.636128 22.558594 43.134766 C 22.236496 42.633403 21.956706 41.977983 21.927734 40.941406 C 21.908824 40.268376 21.989654 39.488669 22.203125 38.613281 C 22.511231 39.016143 22.825483 39.412623 23.246094 39.634766 C 24.342782 40.213975 25.711878 39.945784 26.630859 39.083984 C 27.825172 37.963985 28.388685 35.955584 28.128906 33.34375 C 28.643355 34.491707 28.931533 35.709561 28.958984 37.058594 C 29.004514 39.30092 28.487927 41.781593 27.013672 44.552734 A 1.0001 1.0001 0 0 0 28.242188 45.960938 C 30.166419 45.253118 32.280067 43.994784 33.972656 42.261719 C 35.665246 40.528653 36.94876 38.276628 36.96875 35.669922 C 37.0109 30.145914 32.716349 23.536024 23.679688 17.167969 A 1.0001 1.0001 0 0 0 23.117188 16.984375 z M 23.724609 19.78125 C 31.501631 25.61875 35.000802 31.455803 34.96875 35.65625 C 34.95374 37.613543 33.984676 39.385097 32.541016 40.863281 C 31.716977 41.707026 30.745608 42.398234 29.755859 42.984375 C 30.523992 40.890403 30.994573 38.866342 30.957031 37.017578 C 30.889051 33.676807 29.533916 30.651766 26.662109 28.242188 A 1.0001 1.0001 0 0 0 25.095703 29.390625 C 27.010528 34.024559 26.127757 36.812849 25.261719 37.625 C 24.8287 38.031075 24.533952 38.053258 24.181641 37.867188 C 23.829329 37.681115 23.325321 37.091657 23.113281 35.814453 A 1.0001 1.0001 0 0 0 21.246094 35.505859 C 20.016666 37.796477 19.89064 39.677478 19.927734 40.998047 C 19.953964 41.936671 20.181213 42.672406 20.457031 43.318359 C 19.563238 42.887913 18.626311 42.26325 17.800781 41.466797 C 16.159174 39.883009 14.952783 37.722422 14.970703 35.357422 C 14.995253 32.155284 16.826279 30.142893 19.007812 27.720703 C 20.883299 25.638323 22.904503 23.213222 23.724609 19.78125 z"/></svg>