<svg xmlns="http://www.w3.org/2000/svg"  viewBox="0 0 50 50" width="50px" height="50px"><path d="M 34.5 0 C 30.9 0 28 2.9003906 28 6.4003906 C 28 11.900391 32.999219 15.200781 36.199219 17.300781 C 37.099219 17.900781 37.800781 18.300781 38.300781 18.800781 L 38.900391 19.300781 L 39.5 18.800781 C 40 18.400781 40.799609 17.900781 41.599609 17.300781 C 44.999609 15.100781 50 11.900391 50 6.4003906 C 50 2.9003906 47.1 1.1842379e-15 43.5 0 C 41.8 0 40.2 0.70078125 39 1.8007812 C 37.8 0.70078125 36.2 1.4802974e-16 34.5 0 z M 34.5 2 C 36 2 37.299219 2.7 38.199219 4 L 39 5.1992188 L 39.800781 4 C 40.600781 2.8 42 2 43.5 2 C 46 2 48 4.0003906 48 6.4003906 C 48 10.800391 43.799219 13.599609 40.699219 15.599609 C 39.999219 15.999609 39.5 16.399219 39 16.699219 C 38.5 16.299219 38.000781 15.999609 37.300781 15.599609 C 34.200781 13.599609 30 10.800391 30 6.4003906 C 30 4.0003906 32 2 34.5 2 z M 0 7 L 0 43 L 50 43 L 50 12.634766 C 49.41 13.491766 48.727 14.267609 48 14.974609 L 48 35.964844 L 34.876953 25.589844 C 36.445432 24.22296 37.015367 23.726242 38.923828 22.0625 L 37.457031 20.693359 C 33.137031 24.458359 29.012938 28.052578 28.335938 28.642578 C 26.927937 29.868578 25.534 30.001953 25 30.001953 C 24.467 30.001953 23.073063 29.869578 21.664062 28.642578 C 20.264062 27.423578 4.123 13.356859 2 11.505859 L 2 9 L 26.322266 9 C 26.166266 8.366 26.06925 7.699 26.03125 7 L 0 7 z M 2 14.152344 C 5.1833983 16.926826 10.720038 21.750721 15.121094 25.585938 L 2 35.964844 L 2 14.152344 z M 16.65625 26.923828 C 17.672296 27.809176 20.104907 29.93011 20.353516 30.146484 C 22.271516 31.816484 24.243 31.998047 25 31.998047 C 25.759 31.998047 27.729484 31.818438 29.646484 30.148438 C 29.919482 29.910511 32.16215 27.955436 33.34375 26.925781 L 48 38.513672 L 48 41 L 2 41 L 2 38.513672 L 16.65625 26.923828 z"/></svg>