<svg xmlns="http://www.w3.org/2000/svg"  viewBox="0 0 50 50" width="50px" height="50px"><path d="M 9 1 C 7.355469 1 6 2.355469 6 4 L 6 46 C 6 47.644531 7.355469 49 9 49 L 41 49 C 42.644531 49 44 47.644531 44 46 L 44 4 C 44 2.355469 42.644531 1 41 1 Z M 9 3 L 41 3 C 41.554688 3 42 3.445313 42 4 L 42 46 C 42 46.554688 41.554688 47 41 47 L 9 47 C 8.445313 47 8 46.554688 8 46 L 8 4 C 8 3.445313 8.445313 3 9 3 Z M 25 9 C 18.953125 9 14 13.953125 14 20 C 14 26.046875 18.953125 31 25 31 C 31.046875 31 36 26.046875 36 20 C 36 13.953125 31.046875 9 25 9 Z M 24 11.3125 L 24 19 L 21.0625 19 C 21.179688 16.789063 21.640625 14.789063 22.34375 13.375 C 22.847656 12.355469 23.429688 11.675781 24 11.3125 Z M 26 11.3125 C 26.570313 11.675781 27.152344 12.355469 27.65625 13.375 C 28.359375 14.789063 28.820313 16.789063 28.9375 19 L 26 19 Z M 20.8125 12.03125 C 20.726563 12.183594 20.640625 12.339844 20.5625 12.5 C 19.6875 14.261719 19.148438 16.515625 19.03125 19 L 16.0625 19 C 16.402344 15.984375 18.238281 13.390625 20.8125 12.03125 Z M 29.1875 12.03125 C 31.761719 13.390625 33.597656 15.984375 33.9375 19 L 30.96875 19 C 30.851563 16.515625 30.3125 14.261719 29.4375 12.5 C 29.359375 12.339844 29.273438 12.183594 29.1875 12.03125 Z M 16.0625 21 L 19.03125 21 C 19.148438 23.484375 19.6875 25.738281 20.5625 27.5 C 20.640625 27.660156 20.726563 27.816406 20.8125 27.96875 C 18.238281 26.609375 16.402344 24.015625 16.0625 21 Z M 21.0625 21 L 24 21 L 24 28.6875 C 23.429688 28.324219 22.847656 27.644531 22.34375 26.625 C 21.640625 25.210938 21.179688 23.210938 21.0625 21 Z M 26 21 L 28.9375 21 C 28.820313 23.210938 28.359375 25.210938 27.65625 26.625 C 27.152344 27.644531 26.570313 28.324219 26 28.6875 Z M 30.96875 21 L 33.9375 21 C 33.597656 24.015625 31.761719 26.609375 29.1875 27.96875 C 29.273438 27.816406 29.359375 27.660156 29.4375 27.5 C 30.3125 25.738281 30.851563 23.484375 30.96875 21 Z M 12.8125 38 C 12.261719 38.050781 11.855469 38.542969 11.90625 39.09375 C 11.957031 39.644531 12.449219 40.050781 13 40 L 37 40 C 37.359375 40.003906 37.695313 39.816406 37.878906 39.503906 C 38.058594 39.191406 38.058594 38.808594 37.878906 38.496094 C 37.695313 38.183594 37.359375 37.996094 37 38 L 13 38 C 12.96875 38 12.9375 38 12.90625 38 C 12.875 38 12.84375 38 12.8125 38 Z"/></svg>