<svg xmlns="http://www.w3.org/2000/svg"  viewBox="0 0 50.008 50.008" width="50px" height="50px"><path d="M 24.982422 0 A 1.0001 1.0001 0 0 0 24.167969 0.4453125 L 18.695312 8.6523438 C 18.507751 8.9030307 18.202473 9.0281104 17.892578 8.984375 L 8.2265625 7.0488281 A 1.0001 1.0001 0 0 0 7.0488281 8.2265625 L 8.984375 17.894531 C 9.028665 18.205268 8.901551 18.511257 8.6503906 18.699219 L 0.4453125 24.167969 A 1.0001 1.0001 0 0 0 0.4453125 25.832031 L 8.6523438 31.304688 C 8.9033144 31.492963 9.0278062 31.796822 8.984375 32.107422 L 7.0527344 41.787109 A 1.0001 1.0001 0 0 0 8.2304688 42.962891 L 17.898438 41.025391 C 18.208503 40.979011 18.512669 41.107561 18.699219 41.359375 C 18.699219 41.359375 18.701172 41.359375 18.701172 41.359375 L 24.167969 49.5625 A 1.0001 1.0001 0 0 0 25.832031 49.5625 L 31.304688 41.355469 C 31.491701 41.105295 31.796434 40.981974 32.105469 41.027344 L 41.783203 42.958984 A 1.0001 1.0001 0 0 0 42.960938 41.78125 L 41.023438 32.109375 C 40.976867 31.799548 41.102968 31.494264 41.353516 31.306641 L 49.5625 25.832031 A 1.0001 1.0001 0 0 0 49.5625 24.167969 L 41.353516 18.693359 C 41.104601 18.506787 40.981842 18.202385 41.027344 17.894531 L 42.958984 8.2207031 A 1.0001 1.0001 0 0 0 41.78125 7.0429688 L 32.107422 8.9785156 C 31.796304 9.0228656 31.490724 8.8967347 31.302734 8.6445312 L 25.832031 0.4453125 A 1.0001 1.0001 0 0 0 24.982422 0 z M 25 2.8027344 L 29.667969 9.7988281 A 1.0001 1.0001 0 0 0 29.697266 9.8398438 C 30.323869 10.680481 31.367125 11.112533 32.404297 10.958984 A 1.0001 1.0001 0 0 0 32.455078 10.949219 L 40.705078 9.2988281 L 39.054688 17.548828 A 1.0001 1.0001 0 0 0 39.046875 17.59375 C 38.890007 18.632192 39.322237 19.67743 40.166016 20.302734 A 1.0001 1.0001 0 0 0 40.207031 20.332031 L 47.205078 25 L 40.207031 29.667969 A 1.0001 1.0001 0 0 0 40.166016 29.697266 C 39.32133 30.322694 38.888685 31.366901 39.044922 32.40625 A 1.0001 1.0001 0 0 0 39.052734 32.455078 L 40.705078 40.705078 L 32.451172 39.054688 A 1.0001 1.0001 0 0 0 32.404297 39.046875 C 31.366562 38.891151 30.322876 39.321593 29.697266 40.164062 A 1.0001 1.0001 0 0 0 29.667969 40.207031 L 25 47.205078 L 20.337891 40.210938 A 1.0001 1.0001 0 0 0 20.310547 40.171875 C 19.686712 39.32579 18.641202 38.891379 17.601562 39.046875 A 1.0001 1.0001 0 0 0 17.552734 39.054688 L 9.3085938 40.707031 L 10.955078 32.451172 A 1.0001 1.0001 0 0 0 10.964844 32.400391 C 11.115355 31.364352 10.68319 30.322886 9.84375 29.697266 A 1.0001 1.0001 0 0 0 9.8027344 29.667969 L 2.8027344 25 L 9.796875 20.337891 A 1.0001 1.0001 0 0 0 9.8378906 20.310547 C 10.680921 19.686683 11.115141 18.645361 10.964844 17.607422 A 1.0001 1.0001 0 0 0 10.955078 17.554688 L 9.3046875 9.3046875 L 17.546875 10.955078 A 1.0001 1.0001 0 0 0 17.599609 10.964844 C 18.636593 11.11689 19.677513 10.684911 20.302734 9.84375 A 1.0001 1.0001 0 0 0 20.332031 9.8027344 L 25 2.8027344 z M 25.007812 12.005859 C 19.259028 12.005859 14.867056 15.518475 12.998047 20.03125 C 11.129038 24.544025 11.751849 30.132708 15.816406 34.197266 C 19.880964 38.261823 25.469647 38.884634 29.982422 37.015625 C 34.495197 35.146616 38.007813 30.754645 38.007812 25.005859 C 38.007812 17.838002 32.175671 12.005859 25.007812 12.005859 z M 25.007812 14.005859 C 31.09479 14.005859 36.007812 18.918882 36.007812 25.005859 C 36.007812 29.948675 33.05665 33.577656 29.216797 35.167969 C 25.376944 36.758281 20.725099 36.277833 17.230469 32.783203 C 13.735839 29.288573 13.255391 24.636728 14.845703 20.796875 C 16.436015 16.957022 20.064997 14.005859 25.007812 14.005859 z M 19.001953 20.007812 A 1.981 1.981 0 1 0 21.007812 21.988281 A 1.979 1.979 0 0 0 19.027344 20.007812 A 1.981 1.981 0 0 0 19.001953 20.007812 z M 31.001953 20.007812 A 1.981 1.981 0 1 0 33.007812 21.988281 A 1.979 1.979 0 0 0 31.027344 20.007812 A 1.981 1.981 0 0 0 31.001953 20.007812 z M 25.007812 27.015625 C 22.596642 26.912707 20.2316 27.699356 18.371094 29.238281 A 1.0001 1.0001 0 1 0 19.644531 30.779297 C 21.133995 29.54728 23.030156 28.915878 24.960938 29.007812 A 1.0001 1.0001 0 0 0 25.054688 29.007812 C 26.985468 28.915882 28.88163 29.54728 30.371094 30.779297 A 1.0001 1.0001 0 1 0 31.644531 29.238281 C 29.784018 27.69935 27.418993 26.9127 25.007812 27.015625 z"/></svg>