<svg xmlns="http://www.w3.org/2000/svg"  viewBox="0 0 50 50" width="50px" height="50px"><path d="M 25.158203 1.5625 A 1.150115 1.150115 0 0 0 24.224609 3.3691406 C 24.870709 4.3254349 24.806654 4.7401647 24.755859 4.9960938 C 24.696179 5.2969314 24.521813 5.5280703 24.185547 5.9570312 C 23.849281 6.3859924 23.330358 7.0766237 23.320312 8.0351562 L 23.320312 8.0371094 C 23.308602 9.1828117 23.934263 9.9721371 24.326172 10.402344 A 1.150115 1.150115 0 1 0 26.025391 8.8535156 C 25.8033 8.609722 25.616849 8.2848446 25.619141 8.0605469 C 25.621141 7.8740794 25.687411 7.7662889 25.994141 7.375 C 26.300875 6.9837111 26.827397 6.3725217 27.011719 5.4433594 C 27.168924 4.6512884 27.042759 3.4317371 26.130859 2.0820312 A 1.150115 1.150115 0 0 0 25.158203 1.5625 z M 41.652344 7.5722656 A 1.150115 1.150115 0 0 0 40.466797 8.6855469 C 40.451557 9.0164569 40.354982 9.3751658 40.195312 9.53125 C 40.061673 9.6619524 39.939129 9.6902267 39.445312 9.75 C 38.951496 9.809773 38.146621 9.8710877 37.359375 10.398438 C 36.691016 10.846524 35.916598 11.798682 35.607422 13.398438 A 1.150115 1.150115 0 1 0 37.865234 13.835938 C 38.084058 12.703691 38.421031 12.454507 38.638672 12.308594 C 38.893426 12.137943 39.179769 12.100633 39.720703 12.035156 C 40.261637 11.969676 41.117374 11.846079 41.802734 11.175781 C 42.623066 10.373865 42.738864 9.3721056 42.765625 8.7910156 A 1.150115 1.150115 0 0 0 41.652344 7.5722656 z M 8.7265625 7.5839844 A 1.150115 1.150115 0 0 0 8.5195312 9.8652344 C 9.6517767 10.084058 9.8990088 10.422984 10.044922 10.640625 C 10.215573 10.895379 10.254837 11.181722 10.320312 11.722656 C 10.385793 12.26359 10.507437 13.119326 11.177734 13.804688 C 11.97965 14.625018 12.98141 14.738864 13.5625 14.765625 A 1.150115 1.150115 0 1 0 13.667969 12.46875 C 13.337059 12.45351 12.97835 12.354981 12.822266 12.195312 C 12.691563 12.061673 12.663289 11.93913 12.603516 11.445312 C 12.543742 10.951497 12.482427 10.146621 11.955078 9.359375 C 11.506991 8.6910162 10.554833 7.9165985 8.9550781 7.6074219 A 1.150115 1.150115 0 0 0 8.7265625 7.5839844 z M 25 13.5 A 1.150115 1.150115 0 0 0 24.523438 13.595703 C 18.425209 13.861265 13.5 18.838794 13.5 25 C 13.5 31.330865 18.67016 36.5 25 36.5 C 31.330731 36.5 36.5 31.330731 36.5 25 C 36.5 18.836931 31.572459 13.858249 25.470703 13.595703 A 1.150115 1.150115 0 0 0 25 13.5 z M 25 15.800781 C 30.083135 15.800781 34.199219 19.91784 34.199219 25 C 34.199219 30.083269 30.083269 34.199219 25 34.199219 C 19.91784 34.199219 15.800781 30.083135 15.800781 25 C 15.800781 19.917975 19.917975 15.800781 25 15.800781 z M 28.5 19.771484 C 27.330112 19.771484 26.283056 20.524697 25.910156 21.634766 A 1.150115 1.150115 0 1 0 28.089844 22.365234 C 28.148944 22.189303 28.313888 22.072266 28.5 22.072266 C 28.686112 22.072266 28.851056 22.189303 28.910156 22.365234 A 1.150115 1.150115 0 1 0 31.089844 21.634766 C 30.716944 20.524697 29.669888 19.771484 28.5 19.771484 z M 21.552734 19.818359 C 20.396533 19.795959 19.347274 20.505896 18.927734 21.582031 A 1.1508486 1.1508486 0 1 0 21.072266 22.417969 C 21.144726 22.232104 21.322015 22.115541 21.507812 22.119141 L 21.509766 22.119141 C 21.688565 22.122441 21.857215 22.237225 21.927734 22.417969 A 1.1508486 1.1508486 0 1 0 24.072266 21.582031 C 23.666785 20.542775 22.671935 19.839053 21.552734 19.818359 z M 42.773438 22.285156 C 42.033016 22.297613 41.094311 22.540683 40.082031 23.224609 A 1.150115 1.150115 0 1 0 41.369141 25.130859 C 42.325435 24.484759 42.740165 24.546861 42.996094 24.597656 C 43.296931 24.657336 43.52807 24.833656 43.957031 25.169922 C 44.385992 25.506188 45.076624 26.023157 46.035156 26.033203 L 46.037109 26.033203 C 47.182812 26.044913 47.972137 25.419253 48.402344 25.027344 A 1.150115 1.150115 0 1 0 46.853516 23.328125 C 46.609722 23.550216 46.284845 23.736667 46.060547 23.734375 C 45.874079 23.732375 45.766289 23.666105 45.375 23.359375 C 44.983711 23.052641 44.372522 22.526119 43.443359 22.341797 C 43.245342 22.302496 43.020245 22.281004 42.773438 22.285156 z M 4.3164062 22.320312 C 3.170704 22.308605 2.3813783 22.934263 1.9511719 23.326172 A 1.150115 1.150115 0 1 0 3.5 25.025391 C 3.7437936 24.8033 4.068671 24.616849 4.2929688 24.619141 C 4.4794361 24.621141 4.5872267 24.687411 4.9785156 24.994141 C 5.3698046 25.300875 5.980994 25.827397 6.9101562 26.011719 C 7.7022689 26.168442 8.9226735 26.042159 10.271484 25.130859 A 1.1505944 1.1505944 0 0 0 8.9824219 23.224609 C 8.0261276 23.870709 7.6133509 23.806654 7.3574219 23.755859 C 7.0565842 23.696181 6.8254454 23.521813 6.3964844 23.185547 C 5.9675233 22.849281 5.2749389 22.330358 4.3164062 22.320312 z M 20 26 A 1.0001 1.0001 0 0 0 19.023438 27.21875 C 19.649767 30.003763 22.14578 32 25 32 C 27.85422 32 30.350233 30.003763 30.976562 27.21875 A 1.0001 1.0001 0 0 0 30 26 L 20 26 z M 21.740234 28 L 28.259766 28 C 27.512522 29.133371 26.415385 30 25 30 C 23.584615 30 22.487478 29.133371 21.740234 28 z M 12.591797 35.570312 A 1.150115 1.150115 0 0 0 11.488281 36.519531 C 11.269458 37.651777 10.930532 37.899009 10.712891 38.044922 C 10.458462 38.214838 10.172829 38.254948 9.6328125 38.320312 C 9.0918786 38.385793 8.2361417 38.507437 7.5507812 39.177734 C 6.7304499 39.97965 6.6146513 40.98141 6.5878906 41.5625 A 1.1506232 1.1506232 0 1 0 8.8867188 41.667969 C 8.9019577 41.337059 8.9985345 40.97835 9.1582031 40.822266 C 9.2918427 40.691563 9.414387 40.663289 9.9082031 40.603516 C 10.402019 40.543746 11.206894 40.482427 11.994141 39.955078 C 12.662499 39.506991 13.436917 38.554833 13.746094 36.955078 A 1.150115 1.150115 0 0 0 12.591797 35.570312 z M 35.726562 35.583984 A 1.150115 1.150115 0 0 0 35.519531 37.865234 C 36.651777 38.084058 36.899009 38.422984 37.044922 38.640625 C 37.215573 38.895379 37.254836 39.181722 37.320312 39.722656 C 37.385793 40.26359 37.507437 41.119326 38.177734 41.804688 C 38.97965 42.625019 39.98141 42.738864 40.5625 42.765625 A 1.150115 1.150115 0 1 0 40.667969 40.46875 C 40.337059 40.45351 39.97835 40.354982 39.822266 40.195312 C 39.691563 40.061673 39.663289 39.93913 39.603516 39.445312 C 39.543746 38.951496 39.482427 38.146621 38.955078 37.359375 C 38.506991 36.691016 37.554833 35.916598 35.955078 35.607422 A 1.150115 1.150115 0 0 0 35.726562 35.583984 z M 25.158203 39.5625 A 1.150115 1.150115 0 0 0 24.224609 41.369141 C 24.870709 42.325435 24.806654 42.740165 24.755859 42.996094 C 24.696179 43.296931 24.521813 43.52807 24.185547 43.957031 C 23.849281 44.385992 23.330358 45.076624 23.320312 46.035156 L 23.320312 46.037109 C 23.308602 47.182812 23.934263 47.972137 24.326172 48.402344 A 1.150115 1.150115 0 1 0 26.025391 46.853516 C 25.8033 46.609722 25.616849 46.284845 25.619141 46.060547 C 25.621141 45.874079 25.687411 45.766289 25.994141 45.375 C 26.300875 44.983711 26.827397 44.372522 27.011719 43.443359 C 27.168924 42.651288 27.042759 41.431737 26.130859 40.082031 A 1.150115 1.150115 0 0 0 25.158203 39.5625 z"/></svg>