<svg xmlns="http://www.w3.org/2000/svg"  viewBox="0 0 50 50" width="50px" height="50px"><path d="M 36.814453 3.5 C 34.301458 3.5 32.365415 4.279384 30.90625 5.4433594 C 30.841811 5.2227011 30.75278 5.0085514 30.613281 4.8183594 C 30.236281 4.3043594 29.637 4 29 4 L 24.664062 4 C 23.754062 4 22.959469 4.6150938 22.730469 5.4960938 L 22.058594 8.0722656 L 21.445312 5.53125 C 21.228312 4.63225 20.425953 4 19.501953 4 L 15.384766 4 C 14.452766 4 13.643547 4.6437344 13.435547 5.5527344 C 13.223547 6.4787344 13.028609 7.3265625 12.849609 8.1015625 L 12.146484 5.4804688 C 11.908484 4.5984688 11.108844 4 10.214844 4 C 10.161844 4 10.108688 4.0018594 10.054688 4.0058594 L 6 4.0058594 C 5.365 4.0058594 4.767625 4.3073594 4.390625 4.8183594 C 4.013625 5.3293594 3.9028438 5.9887031 4.0898438 6.5957031 L 8.7109375 21.589844 C 8.9689375 22.428844 9.7430938 23 10.621094 23 L 14.777344 23 C 15.692344 23 16.489844 22.379187 16.714844 21.492188 L 17.396484 18.818359 L 18.121094 21.519531 C 18.355094 22.393531 19.148734 23 20.052734 23 L 24.259766 23 C 25.131766 23 25.904969 22.435516 26.167969 21.603516 L 27.685547 16.796875 C 28.811533 21.10782 32.105663 23.515625 37.111328 23.515625 C 41.493328 23.515625 44.621594 21.222641 45.933594 17.056641 C 46.012594 16.841641 46.056641 16.608234 46.056641 16.365234 C 46.056641 15.979234 45.946813 15.619453 45.757812 15.314453 C 46.064813 14.963453 46.25 14.503 46.25 14 L 46.25 13.25 C 46.25 6.917 41.388453 3.5 36.814453 3.5 z M 36.814453 5.5 C 39.926453 5.5 44.25 7.72 44.25 13.25 L 44.25 14 L 33.5 14 C 33.491 15.126 33.706734 18.392578 37.052734 18.392578 C 38.542734 18.392578 39.983594 17.437234 40.308594 16.365234 L 44.052734 16.365234 C 42.951734 19.973234 40.448328 21.513672 37.111328 21.513672 C 32.665328 21.513672 29.248047 19.3705 29.248047 13.1875 C 29.249047 11.3795 30.435453 5.5 36.814453 5.5 z M 10.214844 6 L 12.966797 16.265625 C 12.966797 16.265625 13.496766 14.235 15.384766 6 L 19.501953 6 L 21.982422 16.287109 L 24.664062 6 L 29 6 L 24.259766 21 L 20.052734 21 L 17.341797 10.917969 L 14.775391 21 L 10.621094 21 L 6 6.0058594 L 10.214844 6.0058594 L 10.214844 6 z M 37.017578 8.9765625 C 34.890578 8.9765625 33.758 10.111812 33.5 12.007812 L 40.5 12.007812 C 40.243 9.6788125 38.467578 8.9765625 37.017578 8.9765625 z M 40.982422 24.974609 L 37.982422 25 C 36.884422 25.009 36 25.902 36 27 L 36 31 L 35 31 C 34.899443 31 34.803594 31.01499 34.707031 31.029297 C 34.888985 30.727919 35 30.377898 35 30 L 35 27.025391 C 35 25.920391 34.105 25.025391 33 25.025391 L 30 25.025391 C 28.895 25.025391 28 25.920391 28 27.025391 L 28 30 C 28 30.601037 28.270105 31.133454 28.689453 31.5 C 28.270105 31.866546 28 32.398963 28 33 L 28 44 C 28 45.105 28.895 46 30 46 L 33 46 C 34.105 46 35 45.105 35 44 L 35 36.972656 L 36.027344 36.972656 L 36.074219 40.330078 C 36.074219 41.938078 36.075609 46.271547 41.224609 46.310547 C 41.371609 46.319547 41.701063 46.335938 42.164062 46.335938 C 42.827062 46.335938 43.504688 46.303234 44.179688 46.240234 C 45.205688 46.144234 45.990187 45.285859 45.992188 44.255859 L 46 41.005859 C 46.001 40.441859 45.763656 39.901484 45.347656 39.521484 C 44.977656 39.184484 44.496 39 44 39 C 43.937 39 43.873547 39.003766 43.810547 39.009766 L 43.724609 39.017578 C 43.557609 39.033578 43.392234 39.052734 43.240234 39.052734 C 43.151234 39.052734 43.070047 39.050828 42.998047 39.048828 L 42.998047 36.912109 L 44.033203 36.894531 C 45.124203 36.875531 45.998047 35.985531 45.998047 34.894531 L 45.998047 32.970703 C 45.998047 31.865703 45.103047 30.970703 43.998047 30.970703 L 42.998047 30.970703 L 42.998047 26.974609 C 42.998047 26.441609 42.78525 25.930688 42.40625 25.554688 C 42.03325 25.184688 41.527 24.974609 41 24.974609 L 40.982422 24.974609 z M 9.640625 25 C 7.8259009 25 6.1769723 26.036224 4.9609375 27.398438 C 3.7449027 28.760651 2.9066474 30.501369 3.0078125 32.269531 A 1.0001 1.0001 0 0 0 3.0078125 32.273438 C 3.0279935 32.596336 3.002743 33.042756 3.09375 33.583984 C 3.5745506 36.520618 5.2117481 38.796121 7.171875 40.705078 C 9.2326423 42.712496 11.60014 44.258589 14.037109 45.625 A 1.0001 1.0001 0 0 0 14.050781 45.632812 C 14.2141 45.720833 14.525391 45.884766 14.525391 45.884766 A 1.0001 1.0001 0 0 0 15.484375 45.869141 C 15.484375 45.869141 15.761126 45.713801 15.943359 45.609375 A 1.0001 1.0001 0 0 0 15.953125 45.603516 C 17.931323 44.444582 19.875247 43.182469 21.640625 41.632812 A 1.0001 1.0001 0 0 0 21.640625 41.630859 C 23.545209 39.9524 25.32463 38.035791 26.335938 35.486328 C 27.593554 32.334018 26.99092 29.097965 24.517578 26.939453 C 22.766812 25.411651 21.10107 25 19.794922 25 C 17.238541 25 15.899692 26.280918 14.978516 27.369141 C 14.023427 26.281073 12.591962 25 9.640625 25 z M 41 26.974609 L 41 32.972656 L 44 32.972656 L 44 34.894531 L 41 34.947266 L 41 39.779297 C 41 40.811297 41.703234 41.052734 43.240234 41.052734 C 43.477234 41.052734 43.739 41.023047 44 40.998047 L 43.992188 44.248047 C 43.264187 44.316047 42.631109 44.335938 42.162109 44.335938 C 41.617109 44.335938 41.292969 44.310547 41.292969 44.310547 C 38.118969 44.310547 38.074219 42.210734 38.074219 40.302734 L 38 34.972656 L 35 34.972656 L 35 33 L 38 33 L 38 27 L 41 26.974609 z M 9.640625 27 C 12.695541 27 13.323084 28.236079 14.201172 29.396484 A 1.0001 1.0001 0 0 0 15.796875 29.396484 C 16.674963 28.236079 17.369999 27 19.794922 27 C 20.746774 27 21.76386 27.189227 23.203125 28.445312 C 25.097783 30.098802 25.502898 32.176451 24.478516 34.744141 A 1.0001 1.0001 0 0 0 24.478516 34.746094 C 23.637645 36.867339 22.11913 38.543888 20.318359 40.130859 C 18.706691 41.54525 16.885998 42.735226 14.976562 43.855469 C 12.634589 42.539831 10.436908 41.093612 8.5683594 39.273438 C 6.7744863 37.526394 5.4576056 35.651086 5.0664062 33.261719 A 1.0001 1.0001 0 0 0 5.0664062 33.255859 C 5.021363 32.991515 5.0336053 32.625575 5.0039062 32.150391 C 4.9475188 31.139888 5.5176931 29.778348 6.453125 28.730469 C 7.3895902 27.681432 8.6383491 27 9.640625 27 z M 30 27.025391 L 33 27.025391 L 33 30 L 30 30 L 30 27.025391 z M 30 33 L 33 33 L 33 34.972656 L 33 44 L 30 44 L 30 33 z"/></svg>